<svg width="59" height="32" viewBox="0 0 59 32" fill="none" xmlns="http://www.w3.org/2000/svg">
<path d="M16.2103 11.6223C16.2103 12.2808 16.2821 12.8146 16.4078 13.2061C16.5515 13.5976 16.7311 14.0247 16.9825 14.4874C17.0723 14.6298 17.1082 14.7722 17.1082 14.8967C17.1082 15.0747 17.0004 15.2526 16.767 15.4306L15.6356 16.178C15.474 16.2848 15.3124 16.3382 15.1687 16.3382C14.9891 16.3382 14.8095 16.2492 14.63 16.089C14.3785 15.8221 14.163 15.5374 13.9835 15.2526C13.8039 14.9501 13.6243 14.612 13.4268 14.2027C12.026 15.8399 10.2661 16.6585 8.14708 16.6585C6.6386 16.6585 5.43541 16.2314 4.55546 15.3772C3.67551 14.523 3.22656 13.3841 3.22656 11.9604C3.22656 10.4478 3.76531 9.21989 4.86075 8.29451C5.95619 7.36914 7.4108 6.90645 9.26048 6.90645C9.87106 6.90645 10.4996 6.95984 11.164 7.04881C11.8285 7.13779 12.5109 7.28016 13.2292 7.44032V6.14123C13.2292 4.78876 12.9419 3.84558 12.3852 3.29392C11.8105 2.74225 10.8408 2.47531 9.45802 2.47531C8.82949 2.47531 8.183 2.5465 7.51855 2.70666C6.8541 2.86682 6.20761 3.06257 5.57907 3.31171C5.29174 3.43628 5.07625 3.50747 4.95054 3.54306C4.82483 3.57865 4.73504 3.59644 4.66321 3.59644C4.4118 3.59644 4.28609 3.41849 4.28609 3.04478V2.17279C4.28609 1.88806 4.32201 1.67451 4.4118 1.54994C4.50159 1.42537 4.66321 1.3008 4.91462 1.17623C5.54316 0.855904 6.2974 0.588968 7.17734 0.375419C8.05729 0.144075 8.99111 0.0373004 9.97881 0.0373004C12.1158 0.0373004 13.6782 0.517785 14.6838 1.47875C15.6715 2.43972 16.1744 3.89897 16.1744 5.8565V11.6223H16.2103ZM8.91928 14.3273C9.5119 14.3273 10.1225 14.2205 10.769 14.0069C11.4155 13.7934 11.9901 13.4019 12.475 12.868C12.7623 12.5299 12.9778 12.1562 13.0856 11.7291C13.1933 11.302 13.2651 10.7859 13.2651 10.1809V9.43344C12.7444 9.30887 12.1877 9.2021 11.613 9.13091C11.0383 9.05973 10.4816 9.02414 9.92493 9.02414C8.72174 9.02414 7.84179 9.25548 7.24918 9.73597C6.65656 10.2165 6.36923 10.8927 6.36923 11.7825C6.36923 12.6189 6.58473 13.2417 7.03368 13.6688C7.46467 14.1137 8.09321 14.3273 8.91928 14.3273ZM23.3396 16.2492C23.0164 16.2492 22.8009 16.1958 22.6572 16.0712C22.5136 15.9645 22.3879 15.7153 22.2801 15.3772L18.06 1.62112C17.9522 1.26521 17.8983 1.03386 17.8983 0.909291C17.8983 0.624559 18.042 0.464398 18.3293 0.464398H20.0892C20.4304 0.464398 20.6639 0.517785 20.7896 0.642355C20.9332 0.749129 21.041 0.998269 21.1487 1.33639L24.1657 13.1172L26.9672 1.33639C27.057 0.980474 27.1647 0.749129 27.3084 0.642355C27.452 0.535581 27.7034 0.464398 28.0267 0.464398H29.4633C29.8045 0.464398 30.038 0.517785 30.1817 0.642355C30.3253 0.749129 30.451 0.998269 30.5229 1.33639L33.3603 13.2595L36.467 1.33639C36.5747 0.980474 36.7005 0.749129 36.8262 0.642355C36.9698 0.535581 37.2033 0.464398 37.5265 0.464398H39.1966C39.484 0.464398 39.6456 0.606763 39.6456 0.909291C39.6456 0.998269 39.6276 1.08725 39.6097 1.19402C39.5917 1.3008 39.5558 1.44316 39.484 1.63892L35.1561 15.395C35.0483 15.7509 34.9226 15.9823 34.7789 16.089C34.6353 16.1958 34.4018 16.267 34.0965 16.267H32.5521C32.2109 16.267 31.9775 16.2136 31.8338 16.089C31.6901 15.9645 31.5644 15.7331 31.4926 15.3772L28.7091 3.89897L25.9436 15.3594C25.8538 15.7153 25.746 15.9467 25.6024 16.0712C25.4587 16.1958 25.2073 16.2492 24.884 16.2492H23.3396ZM46.4158 16.7297C45.482 16.7297 44.5481 16.6229 43.6502 16.4094C42.7523 16.1958 42.052 15.9645 41.5851 15.6975C41.2977 15.5374 41.1002 15.3594 41.0284 15.1993C40.9565 15.0391 40.9206 14.8611 40.9206 14.701V13.7934C40.9206 13.4197 41.0643 13.2417 41.3336 13.2417C41.4414 13.2417 41.5491 13.2595 41.6569 13.2951C41.7646 13.3307 41.9263 13.4019 42.1058 13.4731C42.7164 13.74 43.3809 13.9536 44.0812 14.0959C44.7996 14.2383 45.4999 14.3095 46.2183 14.3095C47.3496 14.3095 48.2296 14.1137 48.8401 13.7222C49.4507 13.3307 49.774 12.7612 49.774 12.0316C49.774 11.5333 49.6123 11.124 49.2891 10.7859C48.9658 10.4478 48.3553 10.1453 47.4753 9.86054L44.8714 9.05973C43.5605 8.65043 42.5907 8.04537 41.9981 7.24457C41.4055 6.46156 41.1002 5.58956 41.1002 4.66419C41.1002 3.91677 41.2618 3.25833 41.5851 2.68886C41.9083 2.1194 42.3393 1.62112 42.878 1.22961C43.4168 0.820312 44.0274 0.517785 44.7457 0.304236C45.464 0.0906876 46.2183 0.00170898 47.0084 0.00170898C47.4035 0.00170898 47.8165 0.0195047 48.2116 0.0728919C48.6246 0.126279 49.0018 0.197462 49.3789 0.268645C49.738 0.357623 50.0792 0.446602 50.4025 0.553376C50.7257 0.660151 50.9771 0.766925 51.1567 0.873699C51.4081 1.01607 51.5877 1.15843 51.6955 1.31859C51.8032 1.46096 51.8571 1.65671 51.8571 1.90585V2.74225C51.8571 3.11596 51.7134 3.31171 51.4441 3.31171C51.3004 3.31171 51.0669 3.24053 50.7616 3.09816C49.738 2.63548 48.5887 2.40413 47.3137 2.40413C46.2901 2.40413 45.482 2.56429 44.9253 2.90241C44.3686 3.24053 44.0812 3.75661 44.0812 4.48623C44.0812 4.98451 44.2608 5.41161 44.62 5.74973C44.9791 6.08784 45.6436 6.42596 46.5954 6.72849L49.1454 7.5293C50.4384 7.9386 51.3722 8.50806 51.9289 9.23769C52.4856 9.96731 52.755 10.8037 52.755 11.7291C52.755 12.4943 52.5934 13.1883 52.2881 13.7934C51.9648 14.3984 51.5338 14.9323 50.9771 15.3594C50.4204 15.8043 49.756 16.1246 48.9838 16.356C48.1757 16.6051 47.3316 16.7297 46.4158 16.7297Z" fill="#252F3E"/>
<path d="M49.81 25.3783C43.9018 29.7027 35.3178 31.9983 27.937 31.9983C17.5932 31.9983 8.27292 28.2079 1.23335 21.9082C0.676645 21.4099 1.17947 20.7337 1.84392 21.1252C9.45815 25.5029 18.8502 28.1545 28.5656 28.1545C35.1203 28.1545 42.3215 26.802 48.948 24.0259C49.9357 23.581 50.7797 24.6665 49.81 25.3783Z" fill="#FF9900"/>
<path d="M56.2703 22.6022C55.516 21.6413 51.2779 22.1395 49.3564 22.3709C48.7818 22.4421 48.692 21.9438 49.2127 21.5701C52.5889 19.221 58.1379 19.8973 58.7844 20.6803C59.4309 21.4811 58.6048 26.98 55.4442 29.6137C54.9593 30.023 54.4924 29.8095 54.7079 29.2756C55.4262 27.5138 57.0245 23.5454 56.2703 22.6022Z" fill="#FF9900"/>
</svg>
