<svg width="36" height="53" viewBox="0 0 36 53" fill="none" xmlns="http://www.w3.org/2000/svg">
<path d="M26.0371 32.0195C26.9661 31.3338 28.2547 30.7404 28.2547 30.7404C28.2547 30.7404 24.5872 31.4568 20.9385 31.7843C16.4749 32.1833 11.6795 32.265 9.27226 31.9172C3.57642 31.0986 12.3996 28.8368 12.3996 28.8368C12.3996 28.8368 8.97837 28.5915 4.76103 30.7811C-0.214336 33.3805 17.0813 34.5674 26.0371 32.0195Z" fill="#5382A1"/>
<path d="M17.9442 28.7346C16.1435 24.3652 10.0687 20.5276 17.9442 13.8147C27.772 5.44414 22.7301 0 22.7301 0C24.7677 8.64704 15.5654 11.2668 12.2388 16.6391C9.97372 20.3128 13.3477 24.2526 17.9442 28.7346Z" fill="#F8981D"/>
<path d="M28.8057 10.7036C28.8152 10.7036 12.2018 15.1857 20.1342 25.0504C22.475 27.9567 19.5181 30.5764 19.5181 30.5764C19.5181 30.5764 25.4604 27.261 22.7309 23.1164C20.1815 19.2482 18.2292 17.3245 28.8057 10.7036Z" fill="#F8981D"/>
<path d="M28.2267 38.3844C28.1793 38.5072 28.0371 38.6403 28.0371 38.6505C40.1961 35.2019 35.7229 26.4831 29.9134 28.6937C29.4016 28.8881 29.1365 29.3384 29.1365 29.3384C29.1365 29.3384 29.4585 29.195 30.179 29.0313C33.1167 28.3662 37.3341 33.2781 28.2267 38.3844Z" fill="#5382A1"/>
<path d="M32.7003 44.7596C32.7003 44.7596 34.0744 45.9775 31.1934 46.9291C25.7062 48.7199 8.37261 49.2621 3.55821 47.0009C1.82391 46.1923 5.07447 45.0563 6.09811 44.8211C7.15941 44.5754 7.77545 44.6162 7.77545 44.6162C5.85159 43.1529 -4.66803 47.4919 2.43035 48.7302C21.7827 52.1274 37.7233 47.2053 32.7003 44.7596Z" fill="#5382A1"/>
<path d="M11.5091 40.5234C4.05064 42.7748 16.0488 47.4207 25.5446 43.0305C23.9906 42.3758 22.8722 41.6185 22.8722 41.6185C18.6359 42.4884 16.6743 42.5496 12.8265 42.079C9.65164 41.6901 11.5091 40.5234 11.5091 40.5234Z" fill="#5382A1"/>
<path d="M28.5496 50.4699C21.0912 51.9843 11.889 51.8106 6.43945 50.8381C6.43945 50.8281 7.55782 51.8309 13.3009 52.23C22.0388 52.8339 35.4584 51.8922 35.7712 47.4307C35.7713 47.4307 35.1647 49.1192 28.5496 50.4699Z" fill="#5382A1"/>
<path d="M24.4192 36.1231C18.8086 37.2898 15.558 37.259 11.4545 36.7985C8.27956 36.4403 10.3551 34.7827 10.3551 34.7827C2.12907 37.7298 14.9231 41.066 26.4187 37.4331C25.1963 36.9725 24.4192 36.1231 24.4192 36.1231Z" fill="#5382A1"/>
</svg>
