<svg width="44" height="46" viewBox="0 0 44 46" fill="none" xmlns="http://www.w3.org/2000/svg">
<path d="M43.8292 27.5425C43.5654 26.7325 42.8742 26.1684 41.9805 26.033C41.5591 25.9693 41.0764 25.9964 40.5053 26.1158C39.5098 26.324 38.7712 26.4032 38.2322 26.4186C40.2667 22.9367 41.921 18.9661 42.8734 15.2285C44.4134 9.18477 43.5905 6.43149 42.6288 5.18613C40.0839 1.8898 36.3708 0.118972 31.8914 0.0647884C29.5019 0.0351702 27.4041 0.513418 26.3098 0.857338C25.2909 0.675098 24.1954 0.573351 23.0459 0.554535C20.8911 0.51969 18.9872 0.995847 17.3604 1.97447C16.4598 1.66574 15.0143 1.23053 13.3451 0.952813C9.41913 0.299469 6.25491 0.808555 3.94044 2.46596C1.13785 4.47268 -0.161356 7.95927 0.0789256 12.8289C0.155238 14.3749 1.00843 19.079 2.3518 23.5402C3.12386 26.1045 3.94714 28.2338 4.79878 29.8698C6.00655 32.1896 7.29888 33.5557 8.74967 34.0463C9.56281 34.3209 11.0403 34.5132 12.5942 33.2013C12.7911 33.4432 13.0539 33.6834 13.4027 33.9066C13.8456 34.1897 14.3872 34.4211 14.9281 34.5582C16.8773 35.0521 18.7031 34.9286 20.2608 34.2362C20.2705 34.5171 20.2778 34.7854 20.284 35.0171C20.2943 35.3929 20.3047 35.7614 20.3182 36.106C20.4105 38.4361 20.5669 40.2479 21.0303 41.5155C21.0557 41.5852 21.09 41.6915 21.126 41.8042C21.3572 42.5217 21.7438 43.7228 22.7272 44.6634C23.7456 45.6379 24.9774 45.9366 26.1056 45.9366C26.6714 45.9366 27.2113 45.8614 27.6848 45.7586C29.3726 45.3918 31.2895 44.8333 32.6762 42.8318C33.9873 40.9397 34.6246 38.0899 34.7399 33.5996C34.7549 33.4726 34.7686 33.3513 34.7819 33.2358L34.8094 32.9985L35.1182 33.0261L35.1978 33.0315C36.9169 33.1109 39.0189 32.7414 40.3099 32.1335C41.3299 31.6537 44.5988 29.9043 43.8292 27.5425Z" fill="black"/>
<path d="M40.8902 28.0018C35.7786 29.0707 35.4272 27.3164 35.4272 27.3164C40.824 19.1988 43.0802 8.89456 41.1334 6.37266C35.8218 -0.506616 26.6273 2.74686 26.4738 2.83119L26.4245 2.84025C25.4146 2.62769 24.2845 2.5012 23.0142 2.48012C20.7014 2.44179 18.9469 3.09479 17.6156 4.11819C17.6156 4.11819 1.21355 -2.73129 1.9765 12.7326C2.13875 16.0223 6.62812 37.6246 11.9827 31.0997C13.9399 28.7137 15.831 26.6964 15.831 26.6964C16.7701 27.3288 17.8945 27.6515 19.0732 27.5356L19.1649 27.4568C19.1363 27.753 19.1494 28.0428 19.2015 28.3858C17.822 29.9481 18.2274 30.2223 15.4699 30.7978C12.6795 31.3807 14.3187 32.4184 15.3889 32.6899C16.6864 33.0186 19.688 33.4845 21.7162 30.6065L21.6354 30.9349C22.1758 31.3738 22.5553 33.7892 22.4917 35.9791C22.4281 38.1687 22.3856 39.6721 22.8114 40.8464C23.2374 42.0207 23.6618 44.6628 27.287 43.8755C30.3159 43.2174 31.8857 41.5123 32.1041 38.6679C32.259 36.6458 32.6098 36.9448 32.6318 35.1369L32.9131 34.2811C33.2375 31.54 32.9647 30.6556 34.8307 31.067L35.2845 31.1074C36.6578 31.1706 38.4556 30.8833 39.5107 30.3863C41.7826 29.3176 43.1301 27.533 40.8899 28.0018H40.8902Z" fill="#336791"/>
<path d="M18.5755 14.2037C18.1148 14.1387 17.6977 14.1988 17.4866 14.3609C17.368 14.452 17.3313 14.5576 17.3213 14.6302C17.2948 14.8227 17.4279 15.0356 17.5097 15.1454C17.741 15.4562 18.0789 15.6698 18.4134 15.7169C18.4619 15.7238 18.5102 15.727 18.5581 15.727C19.1158 15.727 19.623 15.2867 19.6677 14.9618C19.7236 14.5548 19.1408 14.2835 18.5755 14.2039V14.2037ZM33.8352 14.2166C33.7912 13.8976 33.2313 13.8067 32.6998 13.8816C32.1691 13.9565 31.6545 14.1994 31.6974 14.5191C31.7318 14.7677 32.1747 15.1921 32.699 15.1921C32.7433 15.1921 32.788 15.1891 32.833 15.1827C33.183 15.1336 33.4397 14.9083 33.5618 14.7785C33.7474 14.5806 33.855 14.36 33.8352 14.2166Z" fill="white"/>
<path d="M42.5912 27.8803C42.3963 27.2829 41.769 27.0907 40.7267 27.3089C37.6321 27.9563 36.5239 27.5078 36.16 27.2362C38.5654 23.5217 40.5442 19.0316 41.6117 14.8424C42.1174 12.858 42.3967 11.015 42.4195 9.51283C42.4448 7.86414 42.1677 6.65258 41.5964 5.91247C39.2929 2.92887 35.9122 1.32844 31.8198 1.28453C29.0064 1.25247 26.6294 1.9823 26.1686 2.18754C25.1981 1.94293 24.1403 1.79275 22.9885 1.77358C20.8765 1.73891 19.0509 2.25148 17.5394 3.29631C16.8828 3.04856 15.1861 2.45811 13.111 2.11924C9.52366 1.53385 6.67294 1.97743 4.63863 3.4383C2.21123 5.1816 1.09061 8.29779 1.30769 12.7001C1.38073 14.1812 2.2133 18.7375 3.52711 23.101C5.25652 28.8441 7.13649 32.0954 9.11442 32.7642C9.34594 32.8424 9.61286 32.8971 9.90728 32.8971C10.6288 32.8971 11.5135 32.5675 12.4338 31.4458C13.5565 30.0807 14.7177 28.7487 15.9162 27.4516C16.6938 27.8746 17.548 28.1108 18.4216 28.1345C18.4233 28.1577 18.4256 28.1809 18.4276 28.2039C18.2773 28.3857 18.13 28.5701 17.9859 28.757C17.3806 29.536 17.2546 29.6982 15.3061 30.1048C14.7518 30.2209 13.2796 30.5284 13.258 31.5744C13.2346 32.7173 14.9982 33.1973 15.1991 33.2482C15.8994 33.4259 16.574 33.5135 17.2173 33.5135C18.7819 33.5135 20.1588 32.9923 21.2591 31.9837C21.2253 36.0581 21.3928 40.0729 21.8755 41.2962C22.2708 42.2976 23.2364 44.745 26.2865 44.7448C26.734 44.7448 27.2266 44.692 27.7685 44.5742C30.9518 43.8826 32.3342 42.4563 32.8689 39.3121C33.1551 37.6317 33.6462 33.6191 33.8772 31.4668C34.3646 31.6209 34.9921 31.6915 35.6705 31.6913C37.0854 31.6913 38.718 31.3866 39.7419 30.9049C40.8921 30.3634 42.9676 29.0347 42.5912 27.8803ZM35.0105 13.336C35 13.9714 34.9137 14.5483 34.8223 15.1504C34.7238 15.798 34.6221 16.4675 34.5964 17.2803C34.5712 18.0713 34.6686 18.8936 34.7628 19.689C34.9533 21.2953 35.1487 22.9491 34.3923 24.5809C34.2666 24.3552 34.1547 24.1219 34.0571 23.8824C33.9631 23.6514 33.7589 23.2803 33.4762 22.7667C32.3763 20.7672 29.8008 16.0851 31.1192 14.1746C31.512 13.6059 32.5087 13.0212 35.0105 13.336ZM31.9779 2.57118C35.6447 2.65324 38.5453 4.04373 40.5988 6.7038C42.1739 8.74415 40.4395 18.0281 35.4185 26.0374C35.368 25.9723 35.3173 25.9074 35.2662 25.8428L35.2027 25.7623C36.5001 23.5902 36.2464 21.4411 36.0206 19.5358C35.9278 18.7539 35.8401 18.0154 35.8625 17.3216C35.8855 16.5864 35.9814 15.9557 36.0742 15.3459C36.1882 14.5945 36.3042 13.8169 36.2722 12.9003C36.2961 12.8041 36.3057 12.6905 36.2932 12.5557C36.2116 11.6767 35.2216 9.04608 33.2037 6.66512C32.1 5.36279 30.4904 3.9054 28.2926 2.92242C29.2379 2.72381 30.5306 2.5386 31.9779 2.57118ZM11.4598 30.6249C10.4458 31.8609 9.74555 31.6239 9.51524 31.5462C8.01477 31.0389 6.27367 27.8241 4.73866 22.7262C3.41041 18.3152 2.63422 13.8796 2.57269 12.6358C2.37881 8.70216 3.31948 5.96073 5.36875 4.48749C8.70381 2.09015 14.187 3.52507 16.3902 4.2528C16.3586 4.28451 16.3256 4.31413 16.2943 4.34636C12.6788 8.0476 12.7645 14.3713 12.7735 14.7579C12.7731 14.907 12.7855 15.1182 12.8023 15.4086C12.8646 16.4723 12.9804 18.4518 12.671 20.6935C12.3837 22.7768 13.0172 24.8157 14.4089 26.2877C14.5517 26.4385 14.7018 26.582 14.8587 26.7177C14.2392 27.3902 12.8929 28.8774 11.4598 30.6249ZM15.3234 25.3994C14.2018 24.2129 13.6923 22.5626 13.9255 20.8713C14.2521 18.5032 14.1316 16.4407 14.0668 15.3326C14.0577 15.1776 14.0496 15.0417 14.045 14.9345C14.5732 14.4598 17.0208 13.1304 18.7664 13.5359C19.5629 13.7207 20.0483 14.2706 20.25 15.2163C21.2943 20.1125 20.3882 22.1532 19.6602 23.7932C19.5101 24.131 19.3683 24.4504 19.2473 24.7807L19.1535 25.0361C18.9159 25.6818 18.6949 26.2822 18.5579 26.8522C17.3655 26.8487 16.2055 26.3323 15.3234 25.3992V25.3994ZM15.5065 32.0025C15.1582 31.9143 14.8451 31.7612 14.6613 31.6342C14.8148 31.561 15.0879 31.4614 15.5616 31.3624C17.8539 30.8841 18.208 30.5465 18.9811 29.5515C19.1583 29.3233 19.3592 29.0647 19.6375 28.7497L19.6378 28.7494C20.0522 28.279 20.2418 28.3588 20.5855 28.5034C20.8641 28.6201 21.1355 28.9741 21.2455 29.3637C21.2976 29.5477 21.3561 29.8968 21.1648 30.1686C19.5498 32.4607 17.1965 32.4313 15.5065 32.0025ZM27.5032 43.3188C24.6989 43.9278 23.7059 42.4774 23.0516 40.8193C22.6293 39.7489 22.4217 34.9218 22.569 29.591C22.5709 29.5201 22.5609 29.4517 22.5416 29.3872C22.5244 29.2599 22.4982 29.134 22.4633 29.0105C22.2443 28.2349 21.7106 27.5861 21.0704 27.3171C20.816 27.2103 20.3492 27.0143 19.7882 27.1597C19.9078 26.6601 20.1153 26.0957 20.3403 25.4847L20.4346 25.2278C20.5408 24.938 20.6742 24.6378 20.8152 24.32C21.5771 22.6043 22.6205 20.2542 21.4881 14.945C21.0639 12.9564 19.6473 11.9853 17.4999 12.2109C16.2125 12.3459 15.0347 12.8724 14.4472 13.1743C14.3209 13.2392 14.2054 13.3019 14.0974 13.3629C14.2614 11.3593 14.8808 7.61482 17.1981 5.24571C18.6571 3.75435 20.6001 3.01772 22.9676 3.05745C27.6322 3.1348 30.6236 5.56141 32.3117 7.58364C33.7665 9.32606 34.5542 11.0814 34.8685 12.0281C32.5044 11.7844 30.8965 12.2574 30.0815 13.4386C28.3082 16.0081 31.0515 20.9951 32.37 23.3919C32.6118 23.8312 32.8205 24.2108 32.8861 24.3721C33.3155 25.4269 33.8713 26.1311 34.2771 26.6451C34.4015 26.8026 34.5222 26.9554 34.614 27.0888C33.8979 27.2981 32.6118 27.7815 32.729 30.1982C32.6345 31.4108 31.9623 37.0881 31.6208 39.094C31.1699 41.7439 30.208 42.7309 27.5032 43.3189V43.3188ZM39.2085 29.7404C38.4764 30.0848 37.2511 30.3432 36.0871 30.3988C34.8015 30.4597 34.147 30.2528 33.993 30.1254C33.9208 28.6194 34.4737 28.4621 35.059 28.2955C35.1509 28.2694 35.2406 28.2438 35.3273 28.2131C35.3811 28.2575 35.44 28.3016 35.5046 28.3448C36.5379 29.0361 38.381 29.1107 40.983 28.5663L41.0115 28.5605C40.6605 28.8931 40.06 29.3395 39.2085 29.7404Z" fill="white"/>
</svg>
