<svg width="54" height="28" viewBox="0 0 54 28" fill="none" xmlns="http://www.w3.org/2000/svg">
<path d="M38.3484 12.8375L38.3906 11.8687V11.5781H38.0531C37.5469 11.5781 36.9984 11.7234 36.6188 12.0141C36.0281 12.4016 35.6906 13.1281 35.6906 14.1453C35.6906 15.5984 36.3234 16.4219 37.4203 16.4219C37.7578 16.4219 37.9688 16.3734 38.3906 16.2281V14.1453L38.3484 12.8375ZM6.87656 14.0969C6.87656 15.6469 7.55156 16.4703 8.85938 16.4703C9.15469 16.4703 9.28125 16.4703 9.70312 16.3734V11.7719C9.28125 11.675 9.19687 11.6266 8.85938 11.6266C7.59375 11.6266 6.87656 12.5469 6.87656 14.0969ZM19.3641 15.9859C19.3641 16.5672 19.6594 16.8094 20.3344 16.8094C20.7141 16.8094 21.0938 16.7609 21.5156 16.6641V14.7266C19.8281 14.9203 19.3641 15.2109 19.3641 15.9859ZM45.9422 11.5781C44.9719 11.5781 44.3812 12.4984 44.3812 14.0969C44.3812 15.6953 44.9297 16.6156 45.9422 16.6156C46.9125 16.6156 47.4609 15.6953 47.4609 14.0969C47.4609 12.5469 46.9125 11.5781 45.9422 11.5781ZM53.1562 4.26406C53.1562 2.42344 51.8484 0.921875 50.2453 0.921875H3.33281C1.72969 0.921875 0.421875 2.42344 0.421875 4.26406V23.6875C0.421875 25.5766 1.72969 27.0781 3.33281 27.0781H50.2031C51.8063 27.0781 53.1141 25.5766 53.1141 23.7359V4.26406H53.1562ZM4.34531 14.1453C4.34531 11.2391 6.03281 9.30156 8.64844 9.30156C9.07031 9.30156 9.32344 9.35 9.74531 9.44687V5.28125H12.2766V18.3594C11.0109 18.65 10.0406 18.7469 9.02812 18.7469C5.94844 18.7469 4.34531 17.1969 4.34531 14.1453ZM16.0312 16.1797C16.0312 18.4562 15.9469 19.5703 15.525 20.5391C15.1031 21.4594 14.6391 22.0406 13.5422 22.6703L11.2219 21.4109C12.3188 20.8297 12.7828 20.2969 13.1203 19.4734C13.4578 18.65 13.5 17.6812 13.5 15.2109V9.64062H16.0312V16.1797ZM16.0312 8.1875H13.5V5.28125H16.0312V8.1875ZM23.625 18.5047C22.7812 18.6984 21.1781 18.8438 20.1234 18.8438C18.0141 18.8438 17.1281 18.0203 17.1281 16.1313C17.1281 14.0969 18.5203 13.1766 21.4734 12.8859V12.2563C21.4734 11.7234 21.2625 11.5297 20.6297 11.5297C19.7016 11.5297 18.5203 11.8203 17.6766 12.4016V10.1734C18.9422 9.59219 19.8281 9.30156 20.9672 9.30156C22.2328 9.30156 22.9922 9.68906 23.3719 10.4641C23.5828 10.9 23.5828 11.4328 23.5828 12.6438V18.5047H23.625ZM32.4844 18.8438H29.9531V13.1281C29.9531 12.0141 29.5312 11.6266 28.6453 11.6266C28.3078 11.6266 27.8438 11.675 27.4219 11.8203V18.8438H24.8906V9.97969C26.5781 9.54375 27.6328 9.35 28.8563 9.35C30.1219 9.35 31.1344 9.68906 31.6828 10.3188C32.2312 10.9484 32.4844 11.5781 32.4844 13.0312V18.8438ZM40.6266 13.225L40.9219 15.9375V16.7609C40.9219 19.2312 40.6688 20.3937 40.1203 21.3141C39.3609 22.7188 37.9688 23.3969 36.0281 23.3969C35.0578 23.3969 34.1297 23.2516 33.2859 22.8156V20.1516C34.1297 20.6844 35.0578 20.9266 35.9859 20.9266C37.6313 20.9266 38.3484 20.1516 38.3484 18.3594V18.3109C37.9266 18.6016 37.3359 18.6984 36.7031 18.6984C34.5094 18.6984 33.1172 17.0516 33.1172 14.4359C33.1172 11.1906 35.1844 9.35 38.8125 9.35C39.8672 9.35 40.8797 9.49531 42.0609 9.7375L41.0906 11.8203C40.4156 11.675 41.6391 11.8203 40.7953 11.7234L40.6266 13.225ZM45.9 18.8922C43.4109 18.8922 41.85 17.1 41.85 14.1938C41.85 11.1906 43.4531 9.30156 45.9844 9.30156C48.4734 9.30156 49.9922 11.0937 49.9922 14.0484C50.0344 17.0031 48.4313 18.8922 45.9 18.8922Z" fill="#003A2B"/>
</svg>
