<svg width="23" height="51" viewBox="0 0 23 51" fill="none" xmlns="http://www.w3.org/2000/svg">
<path fill-rule="evenodd" clip-rule="evenodd" d="M12.6657 50.6845L11.2988 50.224C11.2988 50.224 11.4657 43.3561 8.96459 42.8632C7.29778 40.957 9.23197 -37.9783 15.2336 42.6001C15.2336 42.6001 13.1661 43.6185 12.7994 45.3606C12.399 47.0696 12.6657 50.6845 12.6657 50.6845Z" fill="white"/>
<path fill-rule="evenodd" clip-rule="evenodd" d="M12.6657 50.6845L11.2988 50.224C11.2988 50.224 11.4657 43.3561 8.96459 42.8632C7.29778 40.957 9.23197 -37.9783 15.2336 42.6001C15.2336 42.6001 13.1661 43.6185 12.7994 45.3606C12.399 47.0696 12.6657 50.6845 12.6657 50.6845Z" fill="#A6A385"/>
<path fill-rule="evenodd" clip-rule="evenodd" d="M13.3996 44.0463C13.3996 44.0463 25.3704 36.2905 22.569 20.1548C19.8684 8.42352 13.4997 4.5786 12.7994 3.09968C12.0327 2.04809 11.2988 0.208069 11.2988 0.208069L11.7993 32.8398C11.7993 32.873 10.7655 42.8301 13.3999 44.0466" fill="white"/>
<path fill-rule="evenodd" clip-rule="evenodd" d="M13.3996 44.0463C13.3996 44.0463 25.3704 36.2905 22.569 20.1548C19.8684 8.42352 13.4997 4.5786 12.7994 3.09968C12.0327 2.04809 11.2988 0.208069 11.2988 0.208069L11.7993 32.8398C11.7993 32.873 10.7655 42.8301 13.3999 44.0466" fill="#499D4A"/>
<path fill-rule="evenodd" clip-rule="evenodd" d="M10.5989 44.4732C10.5989 44.4732 -0.638451 36.9148 0.0285609 23.6059C0.661969 10.2966 8.59782 3.75704 10.1317 2.57405C11.1322 1.52246 11.1654 1.12789 11.2323 0.0762939C11.9325 1.55522 11.7992 22.1928 11.8989 24.6244C12.1988 33.99 11.3656 42.6991 10.5989 44.4732Z" fill="white"/>
<path fill-rule="evenodd" clip-rule="evenodd" d="M10.5989 44.4732C10.5989 44.4732 -0.638451 36.9148 0.0285609 23.6059C0.661969 10.2966 8.59782 3.75704 10.1317 2.57405C11.1322 1.52246 11.1654 1.12789 11.2323 0.0762939C11.9325 1.55522 11.7992 22.1928 11.8989 24.6244C12.1988 33.99 11.3656 42.6991 10.5989 44.4732Z" fill="#58AA50"/>
</svg>
