<svg width="45" height="55" viewBox="0 0 45 55" fill="none" xmlns="http://www.w3.org/2000/svg">
<path d="M22.5 42.7812C33.701 42.7812 42.7812 33.701 42.7812 22.5C42.7812 11.299 33.701 2.21875 22.5 2.21875C11.299 2.21875 2.21875 11.299 2.21875 22.5C2.21875 33.701 11.299 42.7812 22.5 42.7812Z" fill="#94C856"/>
<path d="M22.5 44.625C10.2999 44.625 0.375 34.7001 0.375 22.5C0.375 10.2999 10.2999 0.375 22.5 0.375C34.7001 0.375 44.625 10.2999 44.625 22.5C44.625 34.7001 34.7001 44.625 22.5 44.625ZM22.5 4.0625C12.3336 4.0625 4.0625 12.3336 4.0625 22.5C4.0625 32.6664 12.3336 40.9375 22.5 40.9375C32.6664 40.9375 40.9375 32.6664 40.9375 22.5C40.9375 12.3336 32.6664 4.0625 22.5 4.0625Z" fill="#6E6E6E"/>
<path d="M38.8301 51.3443L33.0776 41.7568C35.6552 39.0981 37.25 35.4843 37.25 31.5C37.25 30.4823 36.424 29.6562 35.4062 29.6562C34.3885 29.6562 33.5625 30.4823 33.5625 31.5C33.5625 34.131 32.6351 36.55 31.0956 38.4509L28.0312 33.3438L24.3438 35.1875L27.9133 41.1373C26.311 42.0407 24.4673 42.5625 22.5 42.5625C20.5843 42.5625 18.7443 42.0499 17.096 41.1207L20.6562 35.1875L16.9688 33.3438L6.16991 51.3443C5.99659 51.6301 5.90625 51.9583 5.90625 52.292V53.9772C5.90625 54.663 6.62716 55.1074 7.24112 54.8013L9.11437 53.8647C9.42781 53.708 9.68962 53.4646 9.87031 53.1641L15.2043 44.2735C17.4242 45.5457 19.9095 46.25 22.5 46.25C25.1605 46.25 27.6514 45.5328 29.8086 44.2956L35.1297 53.1659C35.3104 53.4664 35.5722 53.7098 35.8856 53.8665L37.7589 54.8032C38.3728 55.1074 39.0938 54.663 39.0938 53.9772V52.292C39.0938 51.9583 39.0034 51.6301 38.8301 51.3443Z" fill="#F2F2F2"/>
<path d="M28.0312 22.2812H26.1875V18.5938C26.1875 17.576 25.3615 16.75 24.3438 16.75H20.6562C19.6385 16.75 18.8125 17.576 18.8125 18.5938V22.2812H16.9688C15.951 22.2812 15.125 23.1072 15.125 24.125V31.5C15.125 32.1158 15.4329 32.6911 15.9455 33.034L21.4767 36.7215C21.7865 36.928 22.1442 37.0312 22.5 37.0312C22.8558 37.0312 23.2135 36.928 23.5233 36.7215L29.0545 33.034C29.5671 32.6911 29.875 32.1158 29.875 31.5V24.125C29.875 23.1072 29.049 22.2812 28.0312 22.2812ZM22.5 31.5C20.4627 31.5 18.8125 29.8498 18.8125 27.8125C18.8125 25.7752 20.4627 24.125 22.5 24.125C24.5373 24.125 26.1875 25.7752 26.1875 27.8125C26.1875 29.8498 24.5373 31.5 22.5 31.5Z" fill="#6E6E6E"/>
</svg>
