<svg width="35" height="42" viewBox="0 0 35 42" fill="none" xmlns="http://www.w3.org/2000/svg">
<path d="M2.55163 13.5848C1.14248 13.5841 0.000347681 14.7471 0 16.1773L0.00173844 27.0319C0.00208613 28.4671 1.14491 29.6255 2.55441 29.6251C3.96461 29.6251 5.10709 28.4668 5.10569 27.0323V16.1759C5.105 14.746 3.96148 13.5841 2.55163 13.5848ZM23.1316 3.83707L24.9127 0.533307C25.0076 0.360615 24.9454 0.140953 24.7733 0.0431291C24.5995 -0.0504568 24.385 0.013111 24.2928 0.186863L22.4936 3.52523C20.9798 2.84082 19.2855 2.45729 17.4929 2.45906C15.7051 2.45729 14.0115 2.83976 12.504 3.52029L10.7027 0.190395C10.6091 0.0148768 10.3936 -0.048691 10.2236 0.0470138C10.0504 0.142012 9.98679 0.362028 10.0831 0.534367L11.865 3.83601C8.36381 5.66994 5.99819 9.16264 6.00028 13.1727L28.9882 13.1699C28.9893 9.16122 26.6278 5.67559 23.1316 3.83707ZM12.2644 8.94262C11.7356 8.94156 11.3038 8.50436 11.3038 7.96403C11.3038 7.42618 11.7342 6.98403 12.2655 6.98438C12.7985 6.98403 13.2296 7.42618 13.2303 7.96403C13.2306 8.50365 12.7985 8.94227 12.2644 8.94262ZM22.7321 8.9405C22.2008 8.94121 21.7683 8.50365 21.7683 7.96191C21.7704 7.42512 22.2001 6.98297 22.7324 6.98085C23.2612 6.98261 23.6948 7.42512 23.6945 7.96226C23.6952 8.50294 23.263 8.94086 22.7321 8.9405ZM6.09415 14.0747L6.09798 30.8972C6.09693 32.4274 7.31555 33.6627 8.82101 33.6627L10.6752 33.6634L10.6773 39.4071C10.6769 40.8374 11.8215 42 13.2275 42C14.6377 42 15.7802 40.8364 15.7805 39.4054L15.7792 33.6631L19.2243 33.662L19.2257 39.4054C19.2257 40.8346 20.3706 41.9996 21.777 41.9968C23.1872 41.9979 24.3304 40.8342 24.33 39.4033L24.3283 33.6613L26.1891 33.6599C27.691 33.6606 28.9128 32.4239 28.9135 30.8933L28.9104 14.0708L6.09415 14.0747ZM34.9983 16.1735C34.9979 14.7414 33.8558 13.581 32.4459 13.5817C31.0368 13.5802 29.895 14.7425 29.895 16.1745L29.8971 27.0298C29.8967 28.4629 31.0385 29.6212 32.4487 29.6216C33.8582 29.6212 34.9997 28.4629 35 27.0284L34.9983 16.1735Z" fill="#A4C439"/>
</svg>
