<svg width="58" height="71" viewBox="0 0 58 71" fill="none" xmlns="http://www.w3.org/2000/svg">
<g filter="url(#filter0_d_1004_11)">
<path d="M11.0059 31.5974C11.24 30.5696 11.6246 29.5889 11.9506 28.5897C13.8079 22.9126 15.6769 17.237 17.5577 11.5627C18.7778 7.85612 19.9947 4.14852 21.2087 0.439899C21.3167 0.10786 21.4782 0.00978045 21.8193 0.0118238C25.0494 0.026127 28.2743 0.0189758 31.5013 0.0281707C31.6911 0.0281707 32.0211 -0.130188 31.9989 0.304017L31.8818 0.3551C31.4236 1.72821 30.9684 3.10234 30.5071 4.47443C30.0125 5.9446 29.5027 7.40864 29.0152 8.88085C28.4096 10.7198 27.7918 12.5588 27.2286 14.4101C27.0449 15.0149 26.6775 15.5768 26.7239 16.2491C26.4918 16.2777 26.517 16.4953 26.4696 16.6383C25.0746 20.8598 23.6968 25.0772 22.3018 29.2916C21.9102 30.4716 21.1693 31.3522 19.9803 31.7885C19.521 31.7027 19.1061 31.9765 18.6741 31.9816C16.2516 32.0092 13.8362 31.9897 11.4177 32C11.1098 32.002 10.9685 31.9111 11.0059 31.5974Z" fill="#4385F4"/>
<path d="M32.2058 1C34.2711 6.88388 36.3365 12.7684 38.4019 18.6537C39.9099 22.9469 41.4208 27.2398 42.9346 31.5324C43.0739 31.9242 43.0058 32.0029 42.5836 31.9999C40.0173 31.9827 37.45 31.9999 34.8837 31.9797C34.344 31.986 33.8091 31.8822 33.3152 31.6755C32.8213 31.4687 32.3799 31.1638 32.0207 30.7812C32.0207 24.5251 32.0207 18.2686 32.0207 12.0118C32.0207 8.53037 32.0236 5.04891 32.0293 1.56745C32.0346 1.37864 31.8878 1.11612 32.2058 1Z" fill="#109C58"/>
<path d="M27.0044 16.7258C26.9567 16.0607 27.3106 15.5047 27.4904 14.9063C28.0329 13.0726 28.6249 11.2551 29.2111 9.43554C29.6806 7.97891 30.1715 6.53036 30.6478 5.07575C31.0921 3.71818 31.5305 2.35858 31.9719 1C31.9787 1.18499 31.9903 1.36997 31.9903 1.55496C31.9903 11.1958 31.9903 20.8366 31.9903 30.4774C31.9903 30.6543 32.0467 30.8534 31.8873 31C31.5713 30.6855 31.3372 30.2929 31.2068 29.8588C29.8005 25.4818 28.3997 21.1041 27.0044 16.7258Z" fill="#0C6D3E"/>
<path d="M12.3036 45.8932C13.052 45.8932 13.8004 45.8879 14.5489 45.8932C14.736 45.8932 14.9558 45.8568 14.9774 46.215C15.0943 48.2047 14.7837 50.0217 13.444 51.4471C11.7189 53.2856 8.75784 53.529 6.6669 51.977C4.83322 50.617 3.88645 48.6659 4.01088 46.1625C4.13905 43.5679 5.30474 41.6576 7.3723 40.6257C9.4567 39.5821 11.4691 39.8234 13.2878 41.5042C13.5572 41.753 13.6077 41.9332 13.3168 42.2057C13.0529 42.4524 12.8565 42.8707 12.5683 42.9801C12.2456 43.1013 12.007 42.6358 11.7114 42.4545C10.1462 41.4806 8.27604 41.7187 7.03363 43.0702C5.71825 44.4989 5.34964 46.7503 6.12241 48.5801C6.5005 49.4685 7.1164 50.1951 7.88018 50.6538C8.64396 51.1124 9.51563 51.2792 10.3679 51.1297C11.8919 50.8755 12.9959 49.7825 13.2943 48.2648C13.3738 47.8625 13.2943 47.7188 12.9201 47.7285C11.9845 47.7488 11.049 47.7199 10.1135 47.737C9.81408 47.7435 9.70181 47.648 9.68965 47.2919C9.64194 45.8975 9.63258 45.8975 10.861 45.8975C11.3437 45.8975 11.8274 45.8975 12.3101 45.8975L12.3036 45.8932Z" fill="#4987EC"/>
<path d="M40.3765 51.895C38.3568 52.996 36.9609 52.7539 35.703 51.1141C34.6747 49.771 34.7891 47.486 35.9506 46.1557C37.1433 44.7892 38.7009 44.6223 40.4039 45.7203C40.3094 45.1552 40.6298 45.164 41.006 45.1689C41.9983 45.1825 41.9993 45.1689 41.9983 46.1918C41.9983 48.1752 42.0059 50.1585 41.9889 52.1458C41.9794 53.1385 41.7791 54.0862 41.1326 54.8681C39.6204 56.6963 36.3126 56.2277 35.3164 54.054C35.2219 53.8383 35.2087 53.688 35.4582 53.6002C35.5924 53.5533 35.72 53.4899 35.8514 53.4362C36.5422 53.1443 36.5432 53.1443 37.0223 53.73C37.5894 54.4132 38.3152 54.6016 39.1129 54.3595C39.8775 54.1263 40.2905 53.5338 40.3718 52.7071C40.3964 52.4464 40.4531 52.1917 40.3765 51.895ZM36.6443 48.2786C36.6429 48.2304 36.6372 48.1823 36.6273 48.1351C36.6216 48.1137 36.5885 48.101 36.4988 48.0268C36.6358 48.4992 36.4042 48.9355 36.6547 49.3377C36.7218 49.5173 36.7842 49.6998 36.856 49.8774C36.9794 50.1862 37.1786 50.4565 37.4339 50.6615C37.6893 50.8666 37.992 50.9994 38.3122 51.0468C38.6324 51.0942 38.959 51.0545 39.2599 50.9318C39.5607 50.8091 39.8254 50.6075 40.0278 50.3469C40.6241 49.5836 40.6894 48.3655 40.1894 47.5056C39.4201 46.1918 37.7482 46.1713 36.976 47.4763C36.8333 47.7203 36.7539 48.0102 36.6443 48.2786Z" fill="#4987EE"/>
<path d="M29.9791 52.98C27.5893 53.1433 26.0268 51.1011 26.0004 49.0661C25.9689 46.6731 27.7733 45.003 29.9924 45C32.1576 45 33.841 46.6305 33.9894 48.771C34.1653 51.2593 32.1251 53.2204 29.9791 52.98ZM27.8302 48.9241C27.7021 50.4451 28.9047 51.3739 29.8795 51.379C31.1878 51.379 32.1484 50.4542 32.2023 48.9931C32.2166 48.391 31.9948 47.8072 31.5842 47.3658C31.1736 46.9244 30.6065 46.6602 30.0035 46.6295C29.049 46.5899 27.7041 47.5542 27.8302 48.9221V48.9241Z" fill="#F6BD13"/>
<path d="M49.8032 52.9987C48.0579 52.9935 46.757 52.0156 46.1893 50.2788C45.691 48.754 46.2059 46.7766 47.3874 45.8171C49.1493 44.3834 51.9723 44.7296 52.9669 47.7105C53.0647 47.9932 52.9365 48.1007 52.7045 48.199C51.3028 48.794 49.907 49.4074 48.5052 50.0033C47.9786 50.2276 47.9444 50.4058 48.3809 50.8021C49.3539 51.6838 50.599 51.5896 51.4535 50.5717C51.4991 50.5034 51.557 50.4449 51.6239 50.3996C51.7697 50.3269 52.9316 51.0714 52.9531 51.2455C52.9698 51.3827 52.8641 51.4575 52.7926 51.5445C52.0066 52.4989 51.0297 53.0304 49.8032 52.9987ZM47.7417 48.3987C47.6879 48.8462 47.8817 48.8083 48.0863 48.7182C48.9418 48.3485 49.7973 47.9788 50.647 47.5979C51.1501 47.3726 51.1638 47.2006 50.7047 46.8677C50.1174 46.4407 49.4851 46.4346 48.8557 46.7561C48.1695 47.1074 47.8455 47.73 47.7417 48.3987Z" fill="#E4493D"/>
<path d="M21.0645 52.9998C18.7197 53.0203 17.0227 51.3583 17.0002 49.016C16.9777 46.7763 18.6716 45.025 20.8834 45.0003C23.2579 44.9726 24.9773 46.6419 24.9998 48.9914C25.0193 51.2608 23.3305 52.9803 21.0645 52.9998ZM18.7596 48.9667C18.7258 50.2779 19.7452 51.3983 20.9847 51.4137C22.1719 51.428 23.2016 50.3672 23.2364 49.097C23.2701 47.7458 22.3081 46.6409 21.0666 46.605C19.8251 46.569 18.7944 47.6186 18.7596 48.9667Z" fill="#E4493D"/>
<path d="M44.992 46.9679C44.992 48.8292 44.9818 50.6895 45 52.5529C45 52.9104 44.8863 53.0058 44.4895 52.9997C43.0114 52.9774 43.0114 52.9916 43.0114 51.6867C43.0114 48.3357 43.0205 44.9847 43 41.6336C43 41.1645 43.1001 40.9848 43.6822 41.001C44.9841 41.0376 44.9886 41.0091 44.992 42.1952C44.9958 43.7888 44.9958 45.3797 44.992 46.9679Z" fill="#41AB5C"/>
<path d="M43.0221 59.5253C42.7388 60.3265 42.5094 61.0072 42.2667 61.6834C42.2213 61.8111 42.2298 62.0026 41.9975 61.9945C41.7879 61.9864 41.8143 61.8039 41.7794 61.6942C41.5235 60.8948 41.2836 60.0909 41.04 59.2888C41.006 59.1764 40.9389 59.0326 41.1268 59.0029C41.2808 58.9786 41.3299 59.1117 41.3639 59.2331C41.5187 59.7816 41.6783 60.3283 41.8304 60.8768C41.87 61.0198 41.8908 61.1673 42.0192 61.3165C42.2393 61.0414 42.278 60.7132 42.3913 60.4173C42.5358 60.0388 42.6605 59.6521 42.7832 59.2664C42.8219 59.1477 42.8427 59.0209 42.9948 59.0029C43.1902 58.9804 43.2101 59.1378 43.2535 59.2637C43.4746 59.9589 43.7427 60.6399 44.0562 61.3021C44.23 60.6967 44.4028 60.0912 44.5747 59.4858C44.5821 59.4265 44.5957 59.368 44.6153 59.3113C44.6804 59.1944 44.6398 58.9516 44.8712 59.011C45.1026 59.0703 44.959 59.2565 44.9222 59.3878C44.7116 60.153 44.4944 60.9164 44.2857 61.6834C44.2451 61.83 44.2356 61.9954 44.0241 61.9999C43.8126 62.0044 43.7899 61.8327 43.7408 61.6924C43.516 61.0126 43.2903 60.331 43.0221 59.5253Z" fill="#ABABAB"/>
<path d="M9.00645 59.4716C9.00645 58.8057 9.02066 58.1398 9.00053 57.4739C8.98987 57.1088 9.13907 56.9867 9.52151 57.0011C10.1289 57.0244 10.7375 56.98 11.3402 57.1121C12.3206 57.3241 12.9446 58.0066 12.9837 58.9511C13.0076 59.2837 13.0052 59.6176 12.9766 59.9499C12.8238 61.2062 12.0293 61.871 10.6085 61.962C9.00527 62.0641 9.00527 62.0641 9.00763 60.5781C9.00763 60.2089 9.00724 59.84 9.00645 59.4716ZM12.6214 59.4405C12.6305 59.1083 12.5656 58.7779 12.4307 58.4705C12.0755 57.6304 10.528 57.0278 9.61505 57.3441C9.43981 57.4051 9.43389 57.5194 9.43271 57.647C9.43271 58.8812 9.43271 60.1156 9.43271 61.3505C9.43271 61.517 9.49428 61.6046 9.69675 61.6413C11.3414 61.9409 12.6178 60.9843 12.6214 59.4405Z" fill="#ABABAB"/>
<path d="M33.7062 61.0558C33.7062 59.8641 33.7062 58.6735 33.7062 57.4818C33.7062 57.3201 33.622 57.0326 33.8511 57.0393C34.0623 57.0494 33.9866 57.3336 33.9875 57.502C33.9932 58.8499 33.9932 60.1951 33.9875 61.5377C33.9875 61.7073 34.0614 61.9431 33.8333 61.9937C33.6361 62.0386 33.5959 61.8353 33.5089 61.6747C32.8059 60.3841 32.0908 59.1037 31.2859 57.8345C31.2859 58.3759 31.2859 58.9161 31.2859 59.4575C31.2859 60.1853 31.2859 60.9177 31.3037 61.6421C31.3037 61.8016 31.3364 61.969 31.1634 61.9791C30.9905 61.9892 31.0036 61.7949 31.0036 61.6522C31.0036 60.2295 31.0036 58.8094 31.0036 57.392C31.0036 57.2482 30.9671 57.0719 31.127 57.0135C31.3065 56.9483 31.3728 57.1336 31.4476 57.2673C32.0515 58.3523 32.6507 59.4407 33.2546 60.5245C33.364 60.7211 33.4855 60.9064 33.6015 61.0974L33.7062 61.0558Z" fill="#ABABAB"/>
<path d="M18.3303 61.4887C18.3303 61.947 18.3303 62.3574 18.3303 62.7678C18.3303 62.8595 18.3603 62.9883 18.1907 62.9991C17.9761 63.0131 18.0029 62.8669 18.0018 62.7637C18.0018 61.5961 18.0018 60.4287 18.0018 59.2616C18.0018 59.184 17.9771 59.0841 18.1092 59.0494C18.2412 59.0147 18.3024 59.0858 18.3238 59.1774C18.3528 59.3426 18.4483 59.2963 18.5707 59.2319C18.7709 59.1161 19.0055 59.0406 19.2533 59.0123C20.2193 58.9297 20.7732 59.2641 20.9245 60.0098C20.9685 60.2261 21.0318 60.4392 20.9814 60.663C20.7453 61.7745 19.6086 62.1593 18.3303 61.4887ZM18.3367 60.4351C18.3271 60.5508 18.3271 60.6669 18.3367 60.7827C18.4215 61.2996 18.7575 61.5565 19.3574 61.5763C20.01 61.5986 20.4436 61.3467 20.5478 60.8331C20.6057 60.5598 20.6079 60.2812 20.5542 60.0073C20.4061 59.3029 19.41 58.9891 18.7295 59.4293C18.3464 59.6836 18.2959 60.0428 18.3389 60.4351H18.3367Z" fill="#ABABAB"/>
<path d="M37.1239 60.54C36.9645 60.54 36.8058 60.54 36.6465 60.54C36.2851 60.5452 36.1962 60.7186 36.3526 61.1044C36.5546 61.5908 37.0284 61.8118 37.5088 61.641C37.5823 61.6159 37.644 61.5708 37.7145 61.5543C37.7319 61.5468 37.7504 61.5436 37.769 61.5448C37.7875 61.5461 37.8056 61.5518 37.8222 61.5616C37.8388 61.5714 37.8535 61.5852 37.8654 61.602C37.8773 61.6188 37.8862 61.6383 37.8915 61.6593C37.9121 61.7399 37.8467 61.7798 37.796 61.8214C37.2928 62.2375 36.3159 61.8829 36.1066 61.2076C35.8862 60.5079 36.0177 59.6886 36.4077 59.2872C36.7126 58.9734 37.2326 58.9066 37.5764 59.1372C37.8357 59.3106 38.0391 59.9132 37.9936 60.3232C37.9752 60.4888 37.9135 60.5469 37.7806 60.5443C37.5602 60.5391 37.3399 60.5443 37.1195 60.5443L37.1239 60.54ZM37.0086 60.2938C37.1421 60.2834 37.2761 60.2834 37.4096 60.2938C37.7321 60.3449 37.7512 60.1308 37.6946 59.8551C37.6604 59.6638 37.566 59.4949 37.4306 59.3823C37.2951 59.2698 37.1286 59.2218 36.9645 59.2482C36.6545 59.2915 36.3166 59.7181 36.3034 60.0632C36.2983 60.2365 36.3578 60.2946 36.4944 60.2903C36.6678 60.2877 36.8382 60.2938 37.0086 60.2938Z" fill="#ABABAB"/>
<path d="M24.5415 61.5751C24.1634 61.8491 23.7698 62.0156 23.2442 61.9988C22.5242 61.9777 22.0694 61.7601 22.0106 61.361C21.9302 60.8061 22.3094 60.4317 23.075 60.3295C23.3486 60.2934 23.6282 60.281 23.9054 60.2555C24.1827 60.2299 24.6399 60.3242 24.5919 59.9507C24.5487 59.6238 24.3687 59.3182 23.8286 59.2591C23.5022 59.2239 23.1962 59.2944 22.8854 59.3472C22.7294 59.3754 22.5002 59.4996 22.4414 59.2979C22.391 59.1217 22.6634 59.1217 22.8206 59.0926C23.1446 59.0176 23.4849 58.9877 23.8238 59.0045C24.5667 59.0574 24.9495 59.3331 24.9735 59.8855C24.9987 60.4572 24.9879 61.0307 24.9831 61.6015C24.9831 61.724 25.0719 61.9187 24.8427 61.9416C24.5151 61.9698 24.7035 61.7125 24.5415 61.5751ZM24.1551 60.496C23.7618 60.501 23.3717 60.5482 22.997 60.636C22.4678 60.7382 22.4054 61.0219 22.463 61.354C22.5206 61.6861 22.835 61.7249 23.195 61.7346C23.8814 61.7504 24.3879 61.487 24.5763 61.0104C24.7431 60.5999 24.6351 60.4916 24.1551 60.496Z" fill="#ABABAB"/>
<path d="M27.4951 61.4126C27.8832 60.6382 28.2292 59.9483 28.5762 59.2567C28.6303 59.1489 28.64 58.969 28.8671 59.0345C29.0941 59.1 28.9752 59.2368 28.9114 59.3521C28.3979 60.3612 27.8908 61.372 27.3708 62.3794C27.1297 62.8463 26.6907 63.0718 26.2442 62.9798C26.1447 62.959 26.015 62.9482 26.0128 62.8405C26.0107 62.7327 26.1372 62.736 26.242 62.7194C26.9989 62.5934 27.4075 61.9839 27.1167 61.3927C26.7805 60.7119 26.4367 60.0337 26.1037 59.3521C26.0507 59.2451 25.9026 59.0917 26.0983 59.0204C26.3339 58.9375 26.3761 59.1257 26.4377 59.2526C26.7772 59.9524 27.1178 60.644 27.4951 61.4126Z" fill="#ABABAB"/>
<path d="M47.9999 60.4825C48.0102 61.5232 47.4747 62.0309 46.4027 61.9985C45.6715 61.9758 45.2915 61.7202 45.0918 61.0357C44.8621 60.254 45.0413 59.4032 45.8826 59.1179C47.038 58.7275 47.9885 59.3385 47.9999 60.4825ZM47.6858 60.5359C47.6456 60.0265 47.5086 59.573 46.9382 59.356C46.5108 59.1905 46.0989 59.2789 45.756 59.5442C45.3358 59.8698 45.2061 60.6199 45.4769 61.1329C45.6643 61.483 45.9578 61.7219 46.4511 61.7368C46.9443 61.7517 47.2687 61.5618 47.4994 61.2248C47.6487 61.0068 47.6322 60.7503 47.6858 60.5359Z" fill="#ABABAB"/>
<path d="M51.3898 60.376L53.182 58.7409C53.3282 58.6076 53.4617 58.3316 53.7095 58.5008C53.9574 58.67 53.6129 58.7874 53.5062 58.9164C53.4176 59.0141 53.3212 59.1067 53.2176 59.1935C52.2974 60.0397 52.2986 60.0397 53.2011 60.9492C53.4159 61.1607 53.6371 61.3797 53.8252 61.6113C53.9027 61.7075 54.1201 61.8472 53.9129 61.9614C53.7273 62.0671 53.5723 61.9371 53.4464 61.7953C53.1075 61.4139 52.7622 61.0381 52.4105 60.6679C52.2834 60.541 52.2338 60.2628 51.9834 60.3506C51.7051 60.4468 51.4216 60.6203 51.3987 60.9238C51.3784 61.1861 51.3911 61.4527 51.3835 61.715C51.3835 61.8207 51.3835 61.9487 51.2195 61.9624C51.0034 61.9794 51.006 61.8292 51.0047 61.7076C51.0047 61.128 51.0047 60.5441 51.0047 59.9667C51.0047 59.0867 51.0047 58.2078 51.0047 57.3279C51.0047 57.1967 50.9526 57.0011 51.1954 57C51.4381 56.9989 51.3898 57.1914 51.3898 57.3247C51.3898 58.2903 51.3898 59.2602 51.3898 60.376Z" fill="#ABABAB"/>
<path d="M15.7862 61.9956C15.6451 61.9868 15.4292 62.0168 15.2277 61.9286C15.1121 61.8783 14.954 61.8254 15.0126 61.664C15.0713 61.5027 15.2379 61.5635 15.3399 61.6182C15.68 61.7998 16.02 61.7804 16.3601 61.6508C16.5182 61.5909 16.6729 61.5106 16.6874 61.2911C16.6967 61.1945 16.6773 61.0974 16.6317 61.0127C16.5861 60.928 16.5165 60.8599 16.4323 60.8175C16.2096 60.6923 15.9648 60.6103 15.7361 60.4966C15.5593 60.4084 15.3663 60.3273 15.226 60.1923C14.9225 59.9049 15.0237 59.3388 15.4011 59.1527C15.8168 58.949 16.2513 58.9764 16.6882 59.0769C16.8013 59.1025 16.9296 59.1369 16.8973 59.2956C16.8616 59.4719 16.7392 59.4058 16.6279 59.3767C16.3269 59.2982 16.0328 59.218 15.7106 59.3238C15.6331 59.349 15.5628 59.3937 15.5061 59.4541C15.4494 59.5144 15.4081 59.5884 15.3858 59.6695C15.3289 59.852 15.4368 60.0116 15.6043 60.098C15.8166 60.215 16.0355 60.3187 16.2598 60.4084C16.8616 60.6315 17.0521 60.8704 16.9883 61.3625C16.9322 61.7893 16.6483 61.9797 16.02 62C15.9699 61.9956 15.9129 61.9956 15.7862 61.9956Z" fill="#ABABAB"/>
<path d="M38.7766 58C38.8254 58.1616 38.8654 58.2211 38.8554 58.2731C38.7733 58.7115 38.9964 58.8712 39.497 58.8155C39.6513 58.7975 39.8922 58.772 39.8944 58.9619C39.8944 59.1925 39.6325 59.1509 39.4682 59.1254C38.972 59.0649 38.8177 59.2378 38.8521 59.6498C38.8909 60.1223 38.8521 60.5947 38.8665 61.0615C38.8876 61.5869 39.0608 61.7154 39.6669 61.7314C39.7934 61.7314 40.0054 61.637 39.9999 61.8467C39.9999 61.9733 39.8223 61.9762 39.6913 61.9885C38.9664 62.0556 38.5146 61.8344 38.5035 61.207C38.4946 60.676 38.4669 60.1431 38.4547 59.6101C38.4547 59.4041 38.5413 59.15 38.1328 59.1207C37.9984 59.1103 37.9496 58.9449 38.0639 58.926C38.6256 58.8325 38.5202 58.3799 38.7766 58Z" fill="#ABABAB"/>
<path d="M49.2255 59.4396C49.4054 59.1307 49.5999 58.9553 49.8571 59.0099C49.9291 59.0242 50.0006 59.0314 50 59.1728C50 59.3366 49.9244 59.2928 49.8541 59.291C49.4599 59.2811 49.2015 59.658 49.1898 60.2702C49.181 60.7617 49.1898 61.2549 49.1845 61.7445C49.1845 61.8421 49.2021 61.9853 49.1101 61.9988C48.9894 62.0158 49.0099 61.8529 49.0094 61.7436C49.0066 60.9679 49.0066 60.1921 49.0094 59.4163C49.0094 59.2928 48.9643 59.0931 49.072 59.069C49.2126 59.0412 49.1482 59.2999 49.2255 59.4396Z" fill="#ABABAB"/>
</g>
<defs>
<filter id="filter0_d_1004_11" x="0" y="0" width="58" height="71" filterUnits="userSpaceOnUse" color-interpolation-filters="sRGB">
<feFlood flood-opacity="0" result="BackgroundImageFix"/>
<feColorMatrix in="SourceAlpha" type="matrix" values="0 0 0 0 0 0 0 0 0 0 0 0 0 0 0 0 0 0 127 0" result="hardAlpha"/>
<feOffset dy="4"/>
<feGaussianBlur stdDeviation="2"/>
<feComposite in2="hardAlpha" operator="out"/>
<feColorMatrix type="matrix" values="0 0 0 0 0 0 0 0 0 0 0 0 0 0 0 0 0 0 0.25 0"/>
<feBlend mode="normal" in2="BackgroundImageFix" result="effect1_dropShadow_1004_11"/>
<feBlend mode="normal" in="SourceGraphic" in2="effect1_dropShadow_1004_11" result="shape"/>
</filter>
</defs>
</svg>
