<svg width="34" height="34" viewBox="0 0 34 34" fill="none" xmlns="http://www.w3.org/2000/svg">
<g clip-path="url(#clip0_762_1079)">
<path d="M33.999 0H17.0699L0.904297 17H16.9693L17.0444 16.9235L33.999 0Z" fill="url(#paint0_linear_762_1079)"/>
<path d="M34 34H0H34ZM17.0453 16.9235L16.9703 17H17.1218L17.0453 16.9235Z" fill="url(#paint1_linear_762_1079)"/>
<path d="M17.0708 0H0V17.952V17H0.90525L17.0708 0Z" fill="url(#paint2_linear_762_1079)"/>
<path d="M16.9703 17H0.90525L0 17.952V34L16.9703 17Z" fill="url(#paint3_linear_762_1079)"/>
<path d="M17.1218 17H16.9703L0 34H34L17.1218 17Z" fill="url(#paint4_linear_762_1079)"/>
<path d="M0.90525 17H0V17.952L0.90525 17Z" fill="url(#paint5_linear_762_1079)"/>
</g>
<defs>
<linearGradient id="paint0_linear_762_1079" x1="-6.06927" y1="31.0713" x2="25.5695" y2="-0.567451" gradientUnits="userSpaceOnUse">
<stop stop-color="#C757BC"/>
<stop offset="0.108" stop-color="#C757BC"/>
<stop offset="0.173" stop-color="#CD5CA9"/>
<stop offset="0.492" stop-color="#E8744F"/>
<stop offset="0.716" stop-color="#F88316"/>
<stop offset="0.823" stop-color="#FF8900"/>
<stop offset="1" stop-color="#FF8900"/>
</linearGradient>
<linearGradient id="paint1_linear_762_1079" x1="10.9833" y1="40.1244" x2="26.4046" y2="24.7031" gradientUnits="userSpaceOnUse">
<stop stop-color="#00AFFF"/>
<stop offset="0.296" stop-color="#00AFFF"/>
<stop offset="0.694" stop-color="#5282FF"/>
<stop offset="1" stop-color="#945DFF"/>
</linearGradient>
<linearGradient id="paint2_linear_762_1079" x1="-0.358584" y1="9.39631" x2="10.4596" y2="-1.42221" gradientUnits="userSpaceOnUse">
<stop stop-color="#00AFFF"/>
<stop offset="0.296" stop-color="#00AFFF"/>
<stop offset="0.694" stop-color="#5282FF"/>
<stop offset="1" stop-color="#945DFF"/>
</linearGradient>
<linearGradient id="paint3_linear_762_1079" x1="-5.87848" y1="31.2612" x2="25.7603" y2="-0.377643" gradientUnits="userSpaceOnUse">
<stop stop-color="#AD4CA4"/>
<stop offset="0.108" stop-color="#AD4CA4"/>
<stop offset="0.173" stop-color="#B25093"/>
<stop offset="0.492" stop-color="#CA6545"/>
<stop offset="0.716" stop-color="#D87213"/>
<stop offset="0.823" stop-color="#DE7700"/>
<stop offset="1" stop-color="#DE7700"/>
</linearGradient>
<linearGradient id="paint4_linear_762_1079" x1="10.9833" y1="40.1244" x2="26.4046" y2="24.7031" gradientUnits="userSpaceOnUse">
<stop stop-color="#0098DE"/>
<stop offset="0.296" stop-color="#0098DE"/>
<stop offset="0.694" stop-color="#4771DE"/>
<stop offset="1" stop-color="#8151DE"/>
</linearGradient>
<linearGradient id="paint5_linear_762_1079" x1="3.89309" y1="13.6479" x2="14.7113" y2="2.82937" gradientUnits="userSpaceOnUse">
<stop stop-color="#0098DE"/>
<stop offset="0.296" stop-color="#0098DE"/>
<stop offset="0.694" stop-color="#4771DE"/>
<stop offset="1" stop-color="#8151DE"/>
</linearGradient>
<clipPath id="clip0_762_1079">
<rect width="34" height="34" fill="white"/>
</clipPath>
</defs>
</svg>
