<svg width="42" height="42" viewBox="0 0 42 42" fill="none" xmlns="http://www.w3.org/2000/svg">
<g clip-path="url(#clip0_725_3828)">
<path d="M1.74707 2.8728H40.1771V40.2528H1.74707V2.8728Z" fill="url(#paint0_radial_725_3828)"/>
<path d="M1.7472 2.87281H40.1772V40.2528H1.7472V2.87281ZM0 42H41.916V1.12561H0V42ZM28.266 17.9004C26.8884 17.9004 26.418 18.5976 26.418 19.1772C26.418 19.8072 26.7288 20.244 28.5852 21.2016C31.3236 22.5288 32.1804 23.8056 32.1804 25.6704C32.1804 28.4676 30.0468 29.9712 27.1656 29.9712C25.6452 29.9712 24.3348 29.6604 23.5872 29.2236C23.4612 29.1732 23.4444 29.0808 23.4444 28.9464V26.3676C23.4444 26.1912 23.5284 26.1408 23.6544 26.2248C24.7548 26.9388 26.0148 27.258 27.1656 27.258C28.5432 27.258 29.1228 26.6784 29.1228 25.8972C29.1228 25.2672 28.7196 24.7128 26.9556 23.7972C24.4776 22.6128 23.4444 21.4116 23.4444 19.3956C23.4444 17.1444 25.2084 15.2712 28.266 15.2712C29.7696 15.2712 30.8196 15.498 31.3908 15.7584C31.5336 15.8424 31.5672 15.9852 31.5672 16.1112V18.5052C31.5672 18.648 31.4832 18.732 31.3068 18.6816C30.534 18.1944 29.4 17.9004 28.266 17.9004ZM13.2468 19.9752C13.65 20.0088 13.9608 20.0088 14.658 20.0088C16.6992 20.0088 18.6228 19.2948 18.6228 16.5144C18.6228 14.2968 17.2452 13.1796 14.9184 13.1796C14.2212 13.1796 13.5576 13.2132 13.2384 13.23L13.2468 19.9752ZM10.1304 10.7016C10.1304 10.5756 10.374 10.4916 10.5168 10.4916C11.634 10.4412 13.2972 10.4076 15.0192 10.4076C19.8576 10.4076 21.7476 13.062 21.7476 16.4472C21.7476 20.8824 18.5304 22.7892 14.5824 22.7892C13.9188 22.7892 13.692 22.7556 13.2216 22.7556V29.4588C13.2216 29.6016 13.1712 29.6688 13.0116 29.6688H10.3404C10.1976 29.6688 10.1304 29.6184 10.1304 29.4588V10.7016Z" fill="#31C5F0"/>
</g>
<defs>
<radialGradient id="paint0_radial_725_3828" cx="0" cy="0" r="1" gradientUnits="userSpaceOnUse" gradientTransform="translate(14.4132 11.2593) scale(29.2025 28.2733)">
<stop stop-color="#34364E" stop-opacity="0.98"/>
<stop offset="1" stop-color="#0C0824"/>
</radialGradient>
<clipPath id="clip0_725_3828">
<rect width="42" height="42" fill="white"/>
</clipPath>
</defs>
</svg>
