<svg width="29" height="40" viewBox="0 0 29 40" fill="none" xmlns="http://www.w3.org/2000/svg">
<path d="M7.25148 40C11.2527 40 14.5 37.0133 14.5 33.3333V26.6667H7.25148C3.25028 26.6667 0.00292969 29.6534 0.00292969 33.3333C0.00292969 37.0133 3.25028 40 7.25148 40Z" fill="#0ACF83"/>
<path d="M0.00292969 20C0.00292969 16.32 3.25028 13.3333 7.25148 13.3333H14.5V26.6666H7.25148C3.25028 26.6666 0.00292969 23.68 0.00292969 20Z" fill="#A259FF"/>
<path d="M0.00292969 6.66666C0.00292969 2.98667 3.25028 0 7.25148 0H14.5V13.3333H7.25148C3.25028 13.3333 0.00292969 10.3467 0.00292969 6.66666Z" fill="#F24E1E"/>
<path d="M14.5 0H21.7486C25.7498 0 28.9971 2.98667 28.9971 6.66666C28.9971 10.3467 25.7498 13.3333 21.7486 13.3333H14.5V0Z" fill="#FF7262"/>
<path d="M28.9971 20C28.9971 23.68 25.7498 26.6666 21.7486 26.6666C17.7474 26.6666 14.5 23.68 14.5 20C14.5 16.32 17.7474 13.3333 21.7486 13.3333C25.7498 13.3333 28.9971 16.32 28.9971 20Z" fill="#1ABCFE"/>
</svg>
