<svg width="58" height="46" viewBox="0 0 58 46" fill="none" xmlns="http://www.w3.org/2000/svg">
<path d="M10.9377 38.6362C10.9377 36.6471 10.9377 34.6623 10.9377 32.6732C10.9377 32.0088 11.1506 31.7362 11.7895 31.8001C12.0837 31.8363 12.3813 31.8363 12.6755 31.8001C13.851 31.6212 14.3536 32.111 14.1194 33.2653C13.8468 34.5856 14.4686 34.8966 15.6399 34.773C16.3166 34.7347 16.9949 34.7347 17.6716 34.773C18.1614 34.773 18.7279 34.6453 18.796 35.4204C18.8119 35.5273 18.8678 35.6242 18.9524 35.6915C19.037 35.7587 19.144 35.7912 19.2518 35.7825C20.5295 35.6675 20.4146 36.5108 20.406 37.3456C20.406 39.7138 20.3549 42.0862 20.406 44.4501C20.4316 45.4255 20.0951 45.6853 19.1666 45.6555C16.7005 45.5745 17.0838 45.8855 17.0625 43.5642C17.0625 41.5751 16.9773 39.586 17.0838 37.6012C17.1647 36.0082 16.1127 36.4086 15.2353 36.3234C14.2471 36.2212 14.0469 36.6173 14.081 37.5543C14.1619 39.833 14.081 42.1203 14.1279 44.4032C14.1279 45.3147 13.9064 45.779 12.9225 45.6427C12.5844 45.6022 12.2427 45.6022 11.9045 45.6427C11.1166 45.7279 10.8823 45.3744 10.8994 44.6162C10.9632 42.6101 10.9377 40.6253 10.9377 38.6362Z" fill="#16649D"/>
<path d="M9.63018 41.115C9.63018 42.3928 9.63018 43.6706 9.63018 44.9186C9.63018 45.5149 9.43854 45.7491 8.82947 45.7406C6.69983 45.7406 4.59574 45.7406 2.47462 45.7406C2.34891 45.748 2.22277 45.738 2.0998 45.7108C0.996655 45.3658 -0.604831 41.8349 0.234244 41.2215C1.07332 40.6082 1.41406 38.9599 3.00703 39.3858C3.46936 39.4456 3.93749 39.4456 4.39982 39.3858C6.13334 39.3858 6.78501 38.4232 6.21001 36.7706C6.06519 36.3447 5.78409 36.3149 5.42205 36.3106C4.61705 36.3106 3.81204 36.3106 3.01129 36.3106C2.28722 36.3106 1.61852 36.2723 1.68667 37.3158C1.725 37.8993 1.26073 37.8226 0.877397 37.8312C0.494063 37.8397 0.127784 37.6906 0.123525 37.1923C0.123525 36.8089 0.0809219 36.3404 0.592034 36.3021C1.22666 36.2552 1.51629 36.0167 1.44389 35.3693C1.39704 34.8411 1.74202 34.7602 2.17647 34.7602C3.78647 34.7602 5.39648 34.7602 7.00649 34.7602C7.25352 34.7602 7.71352 34.79 7.6624 34.9732C7.18111 36.711 10.2563 35.7441 9.65574 37.7076C9.34907 38.7511 9.63018 39.9736 9.63018 41.115ZM4.75758 40.9362C3.3861 40.5912 3.18592 41.2812 3.14333 42.4908C3.09648 43.8538 3.6374 44.0539 4.84704 44.071C6.05667 44.088 6.39315 43.6706 6.39315 42.4865C6.39315 41.3025 6.12055 40.5826 4.75758 40.9362Z" fill="#F89130"/>
<path d="M37.4005 40.9574C36.9354 40.9894 36.4686 40.9894 36.0035 40.9574C34.7598 40.7828 34.2998 41.1789 34.3509 42.5291C34.4063 43.6365 34.6107 44.1987 35.8374 44.0326C36.4281 43.9773 37.0228 43.9773 37.6135 44.0326C38.3844 44.0752 38.9466 43.9773 38.8913 42.9806C38.8444 42.1287 39.543 42.4141 39.9987 42.3715C40.6504 42.3119 40.7611 42.708 40.7611 43.2489C40.7611 43.7898 40.6546 44.1945 40.0072 44.1434C39.3598 44.0923 38.8657 44.2413 38.9424 45.0889C38.985 45.6 38.5676 45.681 38.1544 45.681C36.7531 45.681 35.2411 46.0089 33.9931 45.5745C33.0135 45.2337 32.2894 44.1008 31.1607 43.6237C30.935 43.5258 31.0926 42.5121 31.0926 41.92C31.0926 40.3995 31.1181 38.8747 31.0926 37.3541C31.0926 36.5534 31.3013 36.1402 32.1702 36.2467C32.775 36.3234 33.2733 36.2467 33.1924 35.4204C33.1327 34.8283 33.5459 34.7559 34.0229 34.7602C35.1218 34.7602 36.225 34.7602 37.3281 34.7602C38.1246 34.7602 39.1426 34.4578 39.002 35.8889C38.9807 36.136 39.2278 36.2552 39.4279 36.2211C40.6589 36.038 40.5694 36.8558 40.5311 37.6437V37.7672C40.5396 40.9574 40.5396 40.9574 37.4005 40.9574ZM37.2642 37.7672C37.5709 36.5959 37.128 36.268 35.9268 36.2382C34.6022 36.2083 34.3041 36.6215 34.3211 37.878C34.3211 39.0408 34.5596 39.4539 35.8374 39.4752C37.2472 39.4965 37.5411 38.9513 37.2642 37.7672Z" fill="#16649D"/>
<path d="M54.0714 34.7517C54.591 34.7517 55.0127 34.7517 55.4386 34.7517C55.724 34.7517 56.2904 34.7006 56.2478 34.8753C56.0647 36.2169 57.6151 36.0125 57.9217 36.8303C58.041 37.1582 58.1134 37.7418 57.4447 37.7801C56.9677 37.8056 56.3628 37.9845 56.3543 37.1497C56.3543 36.7834 56.414 36.2979 55.8347 36.3362C55.0127 36.383 54.0884 36.0125 53.3984 36.5705C53.3 36.652 53.23 36.7627 53.1984 36.8866C53.1668 37.0104 53.1753 37.1411 53.2226 37.2599C53.2699 37.3786 53.3536 37.4793 53.4617 37.5475C53.5698 37.6157 53.6968 37.648 53.8243 37.6395C54.608 37.6395 55.0382 37.8568 54.9701 38.7129C54.9445 39.0323 55.1021 39.3517 55.4556 39.3347C56.2308 39.3006 56.5162 39.6627 56.4949 40.3868C56.4949 40.4847 56.6141 40.6679 56.6951 40.6764C58.5095 40.8595 57.713 42.2566 57.8621 43.1979C57.9558 43.7771 57.8025 44.2073 57.0614 44.1349C56.9877 44.1163 56.9107 44.1156 56.8367 44.1328C56.7627 44.15 56.6939 44.1846 56.636 44.2338C56.5781 44.2829 56.5327 44.3452 56.5037 44.4155C56.4747 44.4857 56.4629 44.5618 56.4693 44.6375C56.563 45.7747 55.8091 45.6853 55.068 45.6682C54.3269 45.6512 53.7136 45.6682 53.0364 45.6682C52.3591 45.6682 51.5371 45.8045 51.6265 44.6503C51.6606 44.2243 51.2602 44.1307 50.9025 44.1434C50.3147 44.1647 50.0506 43.922 50.0762 43.3129C50.1017 42.8018 50.2849 42.5206 50.8428 42.5505C51.3071 42.576 51.8225 42.4866 51.8054 43.2149C51.8054 43.6408 51.8778 44.0242 52.4017 43.9858C53.1854 43.9347 54.0799 44.3266 54.7102 43.7431C54.8054 43.6565 54.8723 43.5433 54.9021 43.4182C54.9319 43.293 54.9232 43.1618 54.8771 43.0417C54.8311 42.9216 54.7499 42.8181 54.6441 42.7449C54.5384 42.6717 54.413 42.6321 54.2843 42.6314C54.0373 42.593 53.573 42.6314 53.5602 42.5803C53.343 41.5282 52.5763 41.064 51.7969 40.4506C51.4434 40.1695 51.371 39.4625 50.6086 39.4284C50.0506 39.4029 50.0591 38.8321 50.1145 38.4232C50.238 37.533 49.4841 36.119 51.3582 36.1871C51.4264 36.1871 51.5541 36.1019 51.5541 36.0551C51.6393 34.0532 53.1812 34.9732 54.0714 34.7517Z" fill="#16649D"/>
<path d="M43.5043 40.9362C43.5043 39.7522 43.4745 38.5638 43.5043 37.384C43.5043 36.6514 43.3041 36.2468 42.4991 36.3234C41.9752 36.3703 41.5876 36.2638 41.6047 35.5909C41.6217 34.9179 41.9454 34.6964 42.5715 34.739C42.7337 34.7635 42.8992 34.7534 43.0571 34.7092C43.2573 33.5762 44.6884 33.4655 44.9652 32.4816C45.1143 31.9449 45.3273 31.7916 45.8171 31.7958C46.9202 31.7958 48.0191 31.7958 49.1223 31.7958C49.6504 31.7958 49.9017 31.9747 49.8804 32.5284C49.8591 33.0821 49.6291 33.2908 49.0967 33.2738C48.5643 33.2568 47.9978 33.2738 47.4441 33.2738C46.8904 33.2738 46.7286 33.5847 46.7328 34.0831C46.7371 34.5814 46.9969 34.7262 47.4527 34.7475C47.9084 34.7688 48.5856 34.509 48.624 35.4418C48.6623 36.3745 48.0702 36.3234 47.4654 36.2936C46.6988 36.2936 46.7243 36.8175 46.7243 37.3414C46.7243 39.667 46.6434 41.9968 46.7541 44.3138C46.8223 45.7747 45.9534 45.5916 45.0504 45.5916C44.1475 45.5916 43.3467 45.6214 43.483 44.3138C43.5852 43.2149 43.5043 42.0692 43.5043 40.9362Z" fill="#16649D"/>
<path d="M21.812 40.0289C21.812 38.551 21.8418 37.0474 21.812 35.5908C21.812 34.8454 22.0334 34.4706 22.8214 34.526C23.2473 34.5558 23.6732 34.526 24.0992 34.526C24.6997 34.526 25.2066 34.6622 25.1342 35.4459C25.0873 35.9528 25.2747 36.2211 25.8455 36.2297C26.4162 36.2382 26.4886 35.9187 26.5397 35.4417C26.7058 33.8658 27.9538 34.6921 28.729 34.543C29.5042 34.3939 29.8236 34.8156 29.781 35.5737C29.781 35.9996 29.781 36.4256 29.781 36.8515C29.8108 37.4989 29.4957 37.7715 28.8653 37.763C28.0134 37.763 27.1616 37.8098 26.3097 37.763C25.3386 37.6906 25.066 38.108 25.0958 39.0408C25.1512 40.8126 25.0618 42.593 25.1299 44.3648C25.1725 45.3658 24.8318 45.7832 23.8521 45.6426C23.5566 45.6043 23.2574 45.6043 22.962 45.6426C22.0547 45.7576 21.7864 45.3573 21.8205 44.4841C21.8546 42.9891 21.812 41.5069 21.812 40.0289Z" fill="#16649D"/>
<path d="M41.7796 24.1249C41.7412 26.2034 42.099 25.9862 39.8672 25.9819C37.7034 25.9819 38.0612 26.2503 38.0356 23.929C38.0356 22.1614 38.0357 22.1529 40.2249 22.1656C42.0479 22.1954 41.7497 22.0038 41.7796 24.1249Z" fill="#16649D"/>
<path d="M27.9623 24.142C27.9623 25.9862 27.9623 25.9862 26.3097 25.9862C24.4314 25.9862 24.4313 25.9862 24.4313 24.1803C24.4313 22.1656 24.4313 22.1614 26.135 22.1657C28.1667 22.1955 27.9452 21.9655 27.9623 24.142Z" fill="#16649D"/>
<path d="M30.5904 12.2713C30.1006 12.135 29.2062 12.6205 28.9549 11.9689C28.6227 11.117 28.7675 10.0692 28.9166 9.11514C28.9634 8.82125 29.2871 8.81701 29.5384 8.80849C29.8749 8.80849 30.2114 8.80849 30.5479 8.80849C32.9118 8.8383 32.6775 8.46775 32.7584 10.9381C32.7882 11.9603 32.5327 12.4544 31.4466 12.284C31.1618 12.2602 30.8758 12.2559 30.5904 12.2713Z" fill="#16649D"/>
<path d="M21.6281 17.8638C23.8941 17.9021 23.5917 17.621 23.613 19.6442C23.613 21.3479 23.613 21.3479 21.7644 21.3479C19.9159 21.3479 20.2737 21.5779 20.0863 19.346C19.9457 17.7105 20.8018 17.7531 21.6281 17.8638Z" fill="#16649D"/>
<path d="M27.9621 6.29983C27.9621 7.94817 27.9621 7.94816 26.0625 7.9439C24.4269 7.9439 24.4269 7.94393 24.4312 6.023C24.4312 4.42151 24.4312 4.42151 26.2882 4.42151C27.9621 4.42151 27.9621 4.4215 27.9621 6.29983Z" fill="#16649D"/>
<path d="M39.7819 21.3436C39.292 21.1945 38.372 21.7014 38.1591 20.9816C37.9078 20.1297 38.0568 19.1458 38.0909 18.2173C38.0909 17.9149 38.4402 17.8979 38.6958 17.8936C39.2035 17.9277 39.7129 17.9277 40.2206 17.8936C41.5281 17.6806 41.8859 18.2003 41.8093 19.478C41.673 21.5906 42.0563 21.3138 39.7819 21.3436Z" fill="#16649D"/>
<path d="M26.0839 12.2714C24.4313 12.2714 24.4313 12.2713 24.4313 10.5037C24.4313 8.73615 24.4313 8.80004 26.4332 8.80004C27.1317 8.80004 28.073 8.37413 27.9964 9.85209C27.8686 12.2671 27.958 12.2714 26.0839 12.2714Z" fill="#16649D"/>
<path d="M35.1943 12.2713C33.4906 12.2713 33.4906 12.2713 33.4906 10.5676C33.4906 8.80429 33.4906 8.79151 35.4243 8.80855C37.2132 8.80855 37.0045 8.52743 37.0045 10.721C37.0343 12.5226 37.2132 12.2415 35.1943 12.2713Z" fill="#16649D"/>
<path d="M39.7821 16.9821C39.288 16.85 38.3637 17.3313 38.1422 16.6669C37.8891 15.7253 37.8891 14.7335 38.1422 13.7919C38.2061 13.5065 38.5256 13.515 38.7854 13.5193C39.2113 13.5193 39.6373 13.5193 40.0632 13.5193C41.7669 13.5193 41.7669 13.5193 41.7669 15.1762C41.7797 16.9821 41.7797 16.9821 39.7821 16.9821Z" fill="#16649D"/>
<path d="M30.7222 25.9435C28.567 25.918 28.8481 26.1778 28.8353 23.9289C28.8353 22.2039 28.8353 22.2039 30.9053 22.2039C32.69 22.2039 32.69 22.2039 32.69 24.2398C32.69 25.9435 32.69 25.9435 30.7222 25.9435Z" fill="#16649D"/>
<path d="M26.2288 3.41206C24.4313 3.41206 24.4313 3.41205 24.4313 1.77223C24.4313 -0.00388221 24.4313 -0.0038708 26.2501 0.00038847C27.9538 0.00038847 27.9538 0.000369841 27.9538 1.73815C27.9623 3.41204 27.9623 3.41206 26.2288 3.41206Z" fill="#16649D"/>
<path d="M18.3956 13.5704C18.8897 13.7408 19.7629 13.1445 20.061 13.7791C20.4444 14.6011 20.2101 15.6021 20.1547 16.5263C20.1478 16.5893 20.1286 16.6503 20.0981 16.7058C20.0676 16.7613 20.0264 16.8103 19.9769 16.8498C19.9275 16.8894 19.8707 16.9188 19.8098 16.9364C19.749 16.954 19.6852 16.9594 19.6223 16.9523C18.6895 16.9523 17.761 16.9523 16.8325 16.9523C16.7684 16.9581 16.7038 16.9493 16.6435 16.9265C16.5833 16.9038 16.529 16.8677 16.4848 16.821C16.4405 16.7743 16.4074 16.7181 16.388 16.6568C16.3685 16.5954 16.3632 16.5304 16.3725 16.4667C16.3725 16.1728 16.3725 15.8789 16.3725 15.5808C16.3554 13.5746 16.3554 13.5747 18.3956 13.5704Z" fill="#16649D"/>
<path d="M30.9435 26.7571C31.4248 26.8806 32.3704 26.4164 32.562 27.051C32.8261 27.9369 32.6557 28.9634 32.6089 29.926C32.6089 30.1943 32.2681 30.2582 32.0041 30.2667C31.74 30.2752 31.5015 30.2667 31.2459 30.2667C28.6307 30.2667 28.4135 30.0027 28.8224 27.3704C28.9033 26.8678 29.1291 26.7358 29.5678 26.7443L30.9435 26.7571Z" fill="#16649D"/>
<path d="M30.6073 16.9821C30.1089 16.8543 29.1591 17.3186 28.9675 16.6967C28.6949 15.8193 28.8567 14.7928 28.8951 13.8345C28.8951 13.5448 29.2486 13.5448 29.5127 13.5534C29.9727 13.5534 30.4369 13.5534 30.9012 13.5534C32.6901 13.5534 32.6943 13.5534 32.6901 15.3082C32.6815 17.2206 32.8604 16.9608 30.6073 16.9821Z" fill="#16649D"/>
<path d="M30.901 17.885C31.4036 18.0086 32.2981 17.5485 32.5621 18.1704C32.9114 18.9924 32.7453 19.9891 32.6175 20.9048C32.5664 21.2626 32.1916 21.2882 31.9147 21.2924C31.4888 21.2924 31.0629 21.2924 30.6369 21.2924C28.8182 21.2924 28.8055 21.2925 28.8225 19.5419C28.8481 17.621 28.6138 17.9361 30.901 17.885Z" fill="#16649D"/>
<path d="M35.3051 17.8893C37.2559 17.9192 36.9833 17.6423 37.0088 19.6654C37.0088 21.301 37.0088 21.301 35.2625 21.2968C33.5162 21.2925 33.5375 21.2968 33.5588 19.4866C33.5333 17.8893 33.5333 17.8893 35.3051 17.8893Z" fill="#16649D"/>
<path d="M37.0052 24.0823C36.9711 26.1352 37.2905 25.9265 35.2376 25.9393C33.5339 25.9393 33.5339 25.9393 33.5339 24.1249C33.5339 22.3104 33.5339 22.238 35.327 22.2465C37.2309 22.2593 36.9796 22.0847 37.0052 24.0823Z" fill="#16649D"/>
<path d="M35.3005 30.288C33.5329 30.288 33.5201 30.288 33.5329 28.5034C33.5329 26.5058 33.3285 26.7656 35.3175 26.7699C37.3066 26.7741 36.9914 26.5143 36.9957 28.5843C36.9999 30.4371 37.247 30.2582 35.3005 30.288Z" fill="#16649D"/>
<path d="M27.9198 15.108C27.8985 17.195 28.0987 16.9693 26.1139 16.9821C24.474 16.9821 24.4741 16.9821 24.4741 15.223C24.4741 13.5491 24.4741 13.6258 26.8635 13.5193C28.4565 13.4809 27.6941 14.6224 27.9198 15.108Z" fill="#16649D"/>
<path d="M35.288 13.5704C36.9917 13.5704 36.9278 13.5704 37.03 15.3423C37.1067 16.62 36.7873 17.1099 35.4115 17.0162C33.5374 16.8841 33.5247 16.9821 33.5332 15.1847C33.546 13.251 33.4736 13.5534 35.288 13.5704Z" fill="#16649D"/>
<path d="M27.9155 19.6398C27.9155 21.301 27.9155 21.301 26.1564 21.2967C24.4527 21.2967 24.4527 21.2967 24.4527 19.5121C24.4527 17.885 24.4527 17.885 26.3821 17.8893C27.9197 17.8893 27.9197 17.8893 27.9155 19.6398Z" fill="#16649D"/>
<path d="M4.75744 40.9362C6.1204 40.5954 6.37598 41.2556 6.37598 42.4865C6.37598 43.7175 6.07357 44.088 4.82986 44.071C3.58616 44.0539 3.09634 43.8538 3.12616 42.4908C3.18579 41.2684 3.38595 40.5784 4.75744 40.9362Z" fill="#E3E4E4"/>
<path d="M37.2641 37.7673C37.541 38.9514 37.2641 39.4966 35.8373 39.471C34.5595 39.4497 34.338 39.0451 34.321 37.8738C34.321 36.596 34.6021 36.2042 35.9267 36.234C37.1278 36.251 37.5708 36.596 37.2641 37.7673Z" fill="#E3E4E4"/>
</svg>
