<svg width="343" height="228" viewBox="0 0 343 228" fill="none" xmlns="http://www.w3.org/2000/svg">
<path d="M1.1 118.5L0.8 108.6C0.8 71 7.4 43.7 20.6 26.7C34 9.49999 55.3 0.899986 84.5 0.899986C113.5 0.899986 134.6 9.49999 147.8 26.7C161.2 43.7 167.9 70.9 167.9 108.3C167.9 136.5 164.4 160.6 157.4 180.6C146.2 212 121.9 227.7 84.5 227.7C56.3 227.7 35.3 219 21.5 201.6C7.9 184.2 1.1 156.5 1.1 118.5ZM48.2 114.6V118.5C48.2 140.5 51.2 156.7 57.2 167.1C63.2 177.3 72.3 182.4 84.5 182.4C100.9 182.4 111.2 173.7 115.4 156.3C116.8 150.5 118 143.8 119 136.2C120 128.4 120.5 121.1 120.5 114.3C120.5 91.5 117.6 75.1 111.8 65.1C106.2 54.9 97.1 49.8 84.5 49.8C71.5 49.8 62.2 54.8 56.6 64.8C51 74.8 48.2 91.4 48.2 114.6ZM192.013 40.2C208.613 14.2 233.013 1.19998 265.213 1.19998C288.213 1.19998 306.813 7.39999 321.013 19.8C335.213 32.2 342.313 48.4 342.313 68.4C342.313 92 332.013 115.5 311.413 138.9C305.213 145.9 298.213 152.7 290.413 159.3C282.813 165.7 275.213 171.1 267.613 175.5C264.813 177.1 260.613 179 255.012 181.2V183L340.513 181.5V222H198.613V185.7C204.213 181.5 208.613 178.1 211.813 175.5C215.813 172.3 219.313 169.4 222.313 166.8C226.113 163.6 230.013 160.3 234.013 156.9C240.413 151.3 246.313 145.8 251.713 140.4C275.913 116.4 288.013 95.7 288.013 78.3C288.013 69.3 285.213 62.2 279.613 57C274.013 51.8 266.213 49.2 256.213 49.2C239.013 49.2 223.913 57.4 210.913 73.8C207.913 77.2 205.513 80.5 203.713 83.7C201.913 86.9 199.713 91.5 197.113 97.5L197.413 84.6C197.413 80.6 197.413 76.5 197.413 72.3C196.813 68.7 196.413 66.1 196.213 64.5C195.413 57.7 194.913 53.7 194.713 52.5C194.513 51.3 193.613 47.2 192.013 40.2Z" fill="#252424" fill-opacity="0.16"/>
</svg>
