<svg width="343" height="228" viewBox="0 0 343 228" fill="none" xmlns="http://www.w3.org/2000/svg">
<path d="M1.1 118.5L0.8 108.6C0.8 71 7.4 43.7 20.6 26.7C34 9.49999 55.3 0.899986 84.5 0.899986C113.5 0.899986 134.6 9.49999 147.8 26.7C161.2 43.7 167.9 70.9 167.9 108.3C167.9 136.5 164.4 160.6 157.4 180.6C146.2 212 121.9 227.7 84.5 227.7C56.3 227.7 35.3 219 21.5 201.6C7.9 184.2 1.1 156.5 1.1 118.5ZM48.2 114.6V118.5C48.2 140.5 51.2 156.7 57.2 167.1C63.2 177.3 72.3 182.4 84.5 182.4C100.9 182.4 111.2 173.7 115.4 156.3C116.8 150.5 118 143.8 119 136.2C120 128.4 120.5 121.1 120.5 114.3C120.5 91.5 117.6 75.1 111.8 65.1C106.2 54.9 97.1 49.8 84.5 49.8C71.5 49.8 62.2 54.8 56.6 64.8C51 74.8 48.2 91.4 48.2 114.6ZM192.313 201.9C193.113 199.5 193.713 197 194.113 194.4C194.713 191.8 195.013 188.4 195.013 184.2L194.413 165L193.213 148.8C209.213 174.2 228.913 186.9 252.313 186.9C262.913 186.9 271.613 183.9 278.413 177.9C285.413 171.9 288.913 164.2 288.913 154.8C288.913 146.2 285.413 139.1 278.413 133.5C271.413 127.9 262.313 125.1 251.113 125.1C244.713 125.1 238.613 125.7 232.813 126.9C227.013 128.1 220.113 130.3 212.113 133.5V95.4L270.913 52.8V50.4L262.213 51.6C261.613 51.8 258.613 51.9 253.213 51.9C251.013 52.1 248.813 52.2 246.613 52.2H193.213V5.7H334.813V51.3L268.813 97.5V100.2C272.413 98.8 275.313 97.9 277.513 97.5C279.713 97.1 282.413 96.9 285.613 96.9C302.213 96.9 315.713 102.3 326.113 113.1C336.713 123.7 342.013 137.4 342.013 154.2C342.013 176 334.513 193.6 319.513 207C304.513 220.4 285.013 227.1 261.013 227.1C238.013 227.1 218.613 221.6 202.813 210.6C200.613 209.2 198.613 207.7 196.813 206.1C195.013 204.3 193.513 202.9 192.313 201.9Z" fill="#252424" fill-opacity="0.16"/>
</svg>
