<svg width="352" height="228" viewBox="0 0 352 228" fill="none" xmlns="http://www.w3.org/2000/svg">
<path d="M1.1 118.5L0.8 108.6C0.8 71 7.4 43.7 20.6 26.7C34 9.49999 55.3 0.899986 84.5 0.899986C113.5 0.899986 134.6 9.49999 147.8 26.7C161.2 43.7 167.9 70.9 167.9 108.3C167.9 136.5 164.4 160.6 157.4 180.6C146.2 212 121.9 227.7 84.5 227.7C56.3 227.7 35.3 219 21.5 201.6C7.9 184.2 1.1 156.5 1.1 118.5ZM48.2 114.6V118.5C48.2 140.5 51.2 156.7 57.2 167.1C63.2 177.3 72.3 182.4 84.5 182.4C100.9 182.4 111.2 173.7 115.4 156.3C116.8 150.5 118 143.8 119 136.2C120 128.4 120.5 121.1 120.5 114.3C120.5 91.5 117.6 75.1 111.8 65.1C106.2 54.9 97.1 49.8 84.5 49.8C71.5 49.8 62.2 54.8 56.6 64.8C51 74.8 48.2 91.4 48.2 114.6ZM183.913 186.3V124.8L251.413 5.7H330.913V145.2H351.913V186.3H330.913V222H280.213V186.3H183.913ZM269.413 66.6L225.313 145.2H280.513V43.8H278.713C276.313 52 273.213 59.6 269.413 66.6Z" fill="#252424" fill-opacity="0.16"/>
</svg>
