<svg width="89" height="25" viewBox="0 0 89 25" fill="none" xmlns="http://www.w3.org/2000/svg">
<g clip-path="url(#clip0_149_1674)">
<path d="M23.2764 0.045166H27.2863V24.9346H23.2764V0.045166ZM41.321 16.9949C41.321 20.804 38.096 21.1076 37.1366 21.1076C34.7397 21.1076 34.3036 18.8795 34.3036 17.5355V8.00979H30.2937V17.5156C30.2937 19.8751 31.0396 21.8224 32.3468 23.1207C33.5016 24.2686 35.2319 24.8958 37.1065 24.8958C38.4358 24.8958 40.3185 24.4846 41.321 23.5757V24.9346H45.3309V8.00979H41.321V16.9949ZM53.3507 2.03632H49.3408V8.00979H46.3333V11.9921H49.3408V24.9346H53.3507V11.9921H56.3581V8.00979H53.3507V2.03632ZM68.9863 19.8741C68.1132 20.6536 66.9603 21.0857 65.6952 21.0857C62.9063 21.0857 60.8582 19.0517 60.8582 16.2591C60.8582 13.4666 62.8411 11.5182 65.6952 11.5182C66.9383 11.5182 68.1132 11.9294 69.0084 12.7089L69.6169 13.2286L72.3206 10.5445L71.6439 9.93822C70.053 8.51156 67.9407 7.71112 65.6942 7.71112C60.6818 7.71112 57.0418 11.3032 57.0418 16.2382C57.0418 21.1524 60.769 24.8729 65.6942 24.8729C67.9828 24.8729 70.1171 24.0724 71.688 22.6229L72.3416 22.0166L69.5958 19.3345L68.9863 19.8741ZM86.6329 9.48524C85.4781 8.33833 84.1247 7.71112 82.2501 7.71112C80.9208 7.71112 79.4151 8.12229 78.4126 9.03026V0.045166H74.4027V24.9346H78.4126V15.611C78.4126 11.8019 81.1373 11.4993 82.0967 11.4993C84.4936 11.4993 84.4275 13.7284 84.4275 15.0704V24.9346H88.4374V15.0913C88.4374 12.7318 87.9412 10.7845 86.6329 9.48524Z" fill="white"/>
<path d="M65.5632 13.4237C66.3321 13.4237 67.0695 13.7271 67.6132 14.267C68.1569 14.807 68.4624 15.5393 68.4624 16.3029C68.4624 17.0665 68.1569 17.7989 67.6132 18.3388C67.0695 18.8788 66.3321 19.1821 65.5632 19.1821C64.7943 19.1821 64.0569 18.8788 63.5132 18.3388C62.9695 17.7989 62.6641 17.0665 62.6641 16.3029C62.6641 15.5393 62.9695 14.807 63.5132 14.267C64.0569 13.7271 64.7943 13.4237 65.5632 13.4237Z" fill="#FF3D2E"/>
<path d="M17.6622 18.6834C16.1374 20.2415 14.0663 21.0857 11.8869 21.0857C7.41985 21.0857 4.17182 17.6012 4.17182 12.8184C4.17182 8.01377 7.41985 4.52924 11.8869 4.52924C14.0452 4.52924 16.0933 5.3725 17.6411 6.90967L18.2506 7.51598L20.9312 4.8538L20.3428 4.2475C18.1203 1.97459 15.1129 0.742065 11.8869 0.742065C5.30562 0.742065 0.358398 5.936 0.358398 12.8393C0.358398 19.7218 5.32768 24.8948 11.8869 24.8948C15.1349 24.8948 18.1423 23.6404 20.3648 21.3675L20.9533 20.7612L18.2947 18.0562L17.6622 18.6834Z" fill="white"/>
</g>
<defs>
<clipPath id="clip0_149_1674">
<rect width="88.1221" height="24.8895" fill="white" transform="translate(0.336914 0.045166)"/>
</clipPath>
</defs>
</svg>
