<svg width="132" height="103" viewBox="0 0 132 103" fill="none" xmlns="http://www.w3.org/2000/svg">
<rect x="32" y="23" width="41" height="40" rx="2" fill="#453BB1"/>
<rect x="76" y="28" width="37" height="35" rx="2" fill="#453BB1"/>
<rect x="107" width="25" height="24" rx="2" fill="#453BB1"/>
<rect x="77" width="25" height="24" rx="2" fill="#453BB1"/>
<rect x="73" y="67" width="19" height="18" rx="2" fill="#453BB1"/>
<rect x="10" y="23" width="19" height="18" rx="2" fill="#453BB1"/>
<rect x="116" y="27" width="16" height="15" rx="2" fill="#453BB1"/>
<rect x="38" y="67" width="15" height="14" rx="2" fill="#453BB1"/>
<rect x="56" y="67" width="15" height="14" rx="2" fill="#453BB1"/>
<rect x="59" y="5" width="15" height="14" rx="2" fill="#453BB1"/>
<rect x="99" y="89" width="15" height="14" rx="2" fill="#453BB1"/>
<rect width="7" height="7" rx="2" transform="matrix(1 0 0 -1 89 96)" fill="#453BB1"/>
<rect width="7" height="7" rx="2" transform="matrix(1 0 0 -1 116 53)" fill="#453BB1"/>
<rect width="7" height="7" rx="2" transform="matrix(1 0 0 -1 49 19)" fill="#453BB1"/>
<rect width="7" height="7" rx="2" transform="matrix(1 0 0 -1 0 30)" fill="#453BB1"/>
<rect x="95" y="67" width="19" height="18" rx="2" fill="#453BB1"/>
</svg>
