<svg width="207" height="60" viewBox="0 0 207 60" fill="none" xmlns="http://www.w3.org/2000/svg">
<path d="M39.0576 12.6994C38.1003 12.262 37.1078 12.0515 36.0205 12.0515C34.9373 12.0515 33.9613 12.262 33.0329 12.6953C32.0879 13.1368 31.2461 13.7434 30.5342 14.4965C29.8162 15.2558 29.2364 16.1698 28.8114 17.2138C28.3884 18.2496 28.1738 19.3823 28.1738 20.579C28.1738 21.8273 28.3884 22.9828 28.8114 24.0185C29.2385 25.0646 29.8162 25.9786 30.5342 26.7379C31.2481 27.4931 32.0879 28.0997 33.0329 28.5412C33.9593 28.9745 34.9373 29.185 36.0205 29.185C37.1078 29.185 38.1003 28.9725 39.0576 28.5371C40.0294 28.0935 40.8981 27.4828 41.6367 26.7235C42.3713 25.9683 42.9572 25.0584 43.3802 24.0227C43.8032 22.9869 44.0178 21.8294 44.0178 20.5832C44.0178 19.3885 43.8032 18.2579 43.3802 17.218C42.9572 16.1822 42.3692 15.2723 41.6367 14.5171C40.8981 13.7537 40.0294 13.143 39.0576 12.6994Z" fill="white"/>
<path d="M51.6521 9.42706C52.5145 10.5866 53.2552 11.8452 53.8598 13.2008C54.8852 15.5014 55.4052 17.9587 55.4052 20.5028C55.4052 22.4876 55.1101 24.3962 54.5262 26.1706C53.9547 27.914 53.1665 29.5709 52.1864 31.0956L43.1431 44.5482L33.1279 59.5709C48.097 57.9492 59.7504 45.2724 59.7504 29.8742C59.7484 21.9636 56.672 14.771 51.6521 9.42706Z" fill="white"/>
<path d="M24.5507 35.7853C24.7756 36.1485 24.9779 36.5302 25.1553 36.9284C25.6505 38.0405 25.9022 39.2289 25.9022 40.4587C25.9022 41.4181 25.7598 42.3404 25.4772 43.1987C25.2007 44.0405 24.821 44.8431 24.3465 45.5797L19.9744 52.0832L16.8506 56.7689C18.2082 57.4271 19.6236 57.9883 21.0865 58.4381L27.6622 48.5735H27.6725L33.7055 39.4394C31.9187 39.2248 30.2062 38.773 28.5948 38.09C27.136 37.471 25.7846 36.6994 24.5507 35.7853Z" fill="white"/>
<path d="M29.8742 0C13.3742 0 0 13.3762 0 29.8742C0 39.8605 4.90029 48.6996 12.4271 54.124L12.4932 54.0228H12.4973L15.4127 49.6074C14.5482 49.5043 13.7208 49.2856 12.943 48.9554C11.8143 48.4767 10.8178 47.8103 9.98008 46.9706C9.14445 46.1349 8.47183 45.1549 7.98489 44.0572C7.4897 42.9472 7.23798 41.734 7.23798 40.4547C7.23798 39.2229 7.4897 38.0366 7.98489 36.9244C8.47595 35.8247 9.14858 34.8488 9.98627 34.0255C10.824 33.2002 11.8205 32.54 12.945 32.0634C14.0778 31.5847 15.3095 31.3412 16.6073 31.3412C17.8824 31.3412 19.0977 31.5847 20.2181 32.0654C20.5399 32.2037 20.8515 32.3584 21.1527 32.5276C20.0221 31.1473 19.075 29.6163 18.3343 27.9533C17.3089 25.6569 16.7889 23.1479 16.7889 20.4987C16.7889 17.9526 17.3089 15.4952 18.3343 13.1967C19.3494 10.9209 20.7401 8.90305 22.4732 7.19878C24.2085 5.49245 26.2676 4.12656 28.595 3.14237C30.9368 2.152 33.485 1.64856 36.1734 1.64856C38.1191 1.64856 39.9967 1.92297 41.7793 2.46562C38.1294 0.881017 34.106 0 29.8742 0Z" fill="white"/>
<path d="M20.09 42.1569C20.2943 41.6555 20.3974 41.0963 20.3974 40.4939C20.3974 39.9161 20.2943 39.3694 20.09 38.868C19.8857 38.3666 19.601 37.9271 19.2482 37.564C18.8912 37.1967 18.4724 36.9017 18.002 36.6871C17.5398 36.4766 17.0591 36.3735 16.535 36.3735C16.0109 36.3735 15.5405 36.4746 15.0907 36.685C14.6326 36.8975 14.2282 37.1905 13.8837 37.5557C13.537 37.923 13.2564 38.3645 13.0501 38.8701C12.8458 39.3714 12.7427 39.9182 12.7427 40.4959C12.7427 41.0984 12.8458 41.6575 13.0501 42.1589C13.2564 42.6644 13.537 43.106 13.8816 43.4732C14.2262 43.8384 14.6326 44.1314 15.0886 44.3439C15.5364 44.5523 16.0088 44.6555 16.5329 44.6555C17.0591 44.6555 17.5377 44.5523 17.9999 44.3419C18.4703 44.1273 18.8892 43.8322 19.2461 43.465C19.601 43.0977 19.8857 42.6582 20.09 42.1569Z" fill="white"/>
<path d="M90.8283 19.3729H93.991C94.5135 19.3729 94.9536 19.8318 94.9536 20.4055V38.4178C94.9536 38.9914 94.5135 39.4503 93.991 39.4503H91.2134C90.6908 39.4503 90.2508 38.9914 90.2508 38.4178V27.5186L85.5206 35.6356C85.3281 35.9511 85.0256 36.1232 84.668 36.1232H84.0355C83.7055 36.1232 83.3755 35.9511 83.2105 35.6356L78.4802 27.5186V38.4178C78.4802 38.9914 78.0402 39.4503 77.4902 39.4503H74.74C74.19 39.4503 73.75 38.9914 73.75 38.4178V20.4055C73.75 19.8318 74.19 19.3729 74.74 19.3729H77.8752C78.3977 19.3729 78.8653 19.6597 79.1403 20.1187L84.338 29.0388L89.5633 20.1187C89.8383 19.6597 90.3058 19.3729 90.8283 19.3729Z" fill="white"/>
<path d="M111.097 38.5612L110.244 35.693H102.956L102.104 38.5612C101.939 39.0775 101.471 39.4503 100.921 39.4503H97.9236C97.4286 39.4503 97.0711 38.9341 97.2361 38.4178L103.534 20.2047C103.699 19.7171 104.166 19.3729 104.689 19.3729H108.512C109.034 19.3729 109.502 19.7171 109.667 20.2047L115.937 38.4178C116.13 38.9341 115.772 39.4503 115.249 39.4503H112.279C111.729 39.4503 111.262 39.0775 111.097 38.5612ZM109.117 31.993L106.587 23.6179L104.084 31.993H109.117Z" fill="white"/>
<path d="M127.46 27.8341H134.61C135.133 27.8341 135.573 28.293 135.573 28.8667V38.5612C135.573 39.0488 135.188 39.4504 134.72 39.4504H133.978C133.593 39.4504 133.263 39.1635 133.153 38.7907L132.685 36.955C131.31 38.7333 129.275 39.7945 126.498 39.7945C120.805 39.7945 116.707 35.3488 116.707 29.4116C116.707 23.4458 120.805 19.0001 126.498 19.0001C129.33 19.0001 131.778 20.1187 133.51 21.9543C133.923 22.4132 133.868 23.1876 133.345 23.5318L131.035 25.138C130.65 25.3962 130.155 25.3388 129.825 25.0233C129 24.2202 127.9 23.7326 126.498 23.7326C123.142 23.7326 121.437 26.5721 121.437 29.4116C121.437 32.2512 123.142 35.0907 126.498 35.0907C129.11 35.0907 130.595 33.6279 131.228 31.7349H127.46C126.938 31.7349 126.498 31.276 126.498 30.7023V28.8667C126.498 28.293 126.938 27.8341 127.46 27.8341Z" fill="white"/>
<path d="M149.709 34.8039C150.259 34.8039 150.699 35.2628 150.699 35.8364V38.4178C150.699 38.9914 150.259 39.4503 149.709 39.4503H139.588C139.038 39.4503 138.598 38.9914 138.598 38.4178V20.4055C138.598 19.8318 139.038 19.3729 139.588 19.3729H149.461C150.011 19.3729 150.451 19.8318 150.451 20.4055V22.9869C150.451 23.5318 150.011 23.9907 149.461 23.9907H143.301V27.1171H148.581C149.131 27.1171 149.571 27.576 149.571 28.1496V30.4729C149.571 31.0465 149.131 31.5054 148.581 31.5054H143.301V34.8039H149.709V34.8039Z" fill="white"/>
<path d="M166.072 19.3729H168.849C169.372 19.3729 169.812 19.8318 169.812 20.4055V38.4178C169.812 38.9914 169.372 39.4503 168.849 39.4503H166.484C165.989 39.4503 165.522 39.1922 165.274 38.762L158.179 27.7481V38.4178C158.179 38.9914 157.739 39.4503 157.216 39.4503H154.439C153.889 39.4503 153.449 38.9914 153.449 38.4178V20.4055C153.449 19.8318 153.889 19.3729 154.439 19.3729H156.804C157.299 19.3729 157.739 19.6311 158.014 20.0613L165.082 31.0752V20.4055C165.082 19.8318 165.522 19.3729 166.072 19.3729Z" fill="white"/>
<path d="M186.011 20.4055V22.9869C186.011 23.5318 185.571 23.9907 185.021 23.9907H181.501V38.4178C181.501 38.9914 181.061 39.4503 180.511 39.4503H177.76C177.238 39.4503 176.798 38.9914 176.798 38.4178V23.9907H173.278C172.728 23.9907 172.288 23.5318 172.288 22.9869V20.4055C172.288 19.8318 172.728 19.3729 173.278 19.3729H185.021C185.571 19.3729 186.011 19.8318 186.011 20.4055Z" fill="white"/>
<path d="M206.829 29.412C206.829 35.3778 202.731 39.8235 197.039 39.8235C191.346 39.8235 187.248 35.3778 187.248 29.412C187.248 23.4748 191.346 19.0291 197.039 19.0291C202.731 19.0291 206.829 23.4748 206.829 29.412ZM202.099 29.412C202.099 26.5724 200.394 23.7616 197.039 23.7616C193.683 23.7616 191.978 26.5724 191.978 29.412C191.978 32.2515 193.683 35.091 197.039 35.091C200.394 35.091 202.099 32.2515 202.099 29.412Z" fill="white"/>
</svg>
