<svg width="40" height="40" viewBox="0 0 40 40" fill="none" xmlns="http://www.w3.org/2000/svg">
<path d="M0 12.5H8.945V40H0V12.5ZM33.31 12.8225C33.215 12.7925 33.125 12.76 33.025 12.7325C32.9049 12.7053 32.784 12.682 32.6625 12.6625C32.1343 12.5545 31.5966 12.5001 31.0575 12.5C25.8425 12.5 22.535 16.2925 21.445 17.7575V12.5H12.5V40H21.445V25C21.445 25 28.205 15.585 31.0575 22.5V40H40V21.4425C39.9963 19.4678 39.3375 17.5502 38.1268 15.9903C36.9161 14.4303 35.222 13.3162 33.31 12.8225Z" fill="white"/>
<path d="M4.375 8.75C6.79125 8.75 8.75 6.79125 8.75 4.375C8.75 1.95875 6.79125 0 4.375 0C1.95875 0 0 1.95875 0 4.375C0 6.79125 1.95875 8.75 4.375 8.75Z" fill="white"/>
</svg>
