<svg width="40" height="33" viewBox="0 0 40 33" fill="none" xmlns="http://www.w3.org/2000/svg">
<path d="M40 3.9012C38.4967 4.55339 36.9069 4.98453 35.28 5.1812C36.9963 4.15584 38.2825 2.54277 38.9 0.641201C37.2871 1.60133 35.5215 2.27779 33.68 2.6412C32.4491 1.30634 30.8099 0.417793 29.0196 0.114903C27.2293 -0.187986 25.3891 0.111917 23.7876 0.967579C22.1861 1.82324 20.9139 3.18626 20.1705 4.84287C19.4271 6.49948 19.2546 8.35598 19.68 10.1212C16.4189 9.95625 13.2289 9.10711 10.3173 7.62892C7.40574 6.15074 4.83769 4.07659 2.78 1.5412C2.05828 2.80154 1.67904 4.22885 1.68 5.6812C1.67744 7.02996 2.00843 8.35843 2.64351 9.54833C3.27859 10.7382 4.19804 11.7526 5.32 12.5012C4.01595 12.4657 2.73977 12.1158 1.6 11.4812V11.5812C1.60977 13.471 2.27199 15.2994 3.47463 16.7571C4.67727 18.2149 6.34651 19.2125 8.2 19.5812C7.48651 19.7983 6.74575 19.9128 6 19.9212C5.48378 19.9152 4.96884 19.8684 4.46 19.7812C4.98782 21.4068 6.00925 22.8275 7.38215 23.8455C8.75505 24.8635 10.4112 25.4283 12.12 25.4612C9.23441 27.7317 5.67177 28.9709 2 28.9812C1.33147 28.9834 0.663471 28.9433 0 28.8612C3.74886 31.2817 8.11763 32.5666 12.58 32.5612C15.6594 32.5932 18.7143 32.0112 21.5662 30.8494C24.4182 29.6875 27.01 27.969 29.1904 25.7942C31.3708 23.6194 33.0959 21.032 34.2651 18.183C35.4343 15.334 36.0241 12.2807 36 9.2012C36 8.8612 36 8.5012 36 8.1412C37.5694 6.97082 38.923 5.53605 40 3.9012Z" fill="white"/>
</svg>
