<svg width="95" height="94" viewBox="0 0 95 94" fill="none" xmlns="http://www.w3.org/2000/svg">
<rect width="95" height="94" rx="20" fill="#00A256"/>
<path d="M51.1081 19.4688C52.0411 19.8908 52.3784 20.6405 52.2479 21.618C52.1646 22.2427 52.3354 22.6301 52.9796 22.8717C53.5211 23.0758 53.9834 23.4812 54.4999 23.7616C54.6443 23.8408 54.8858 23.8532 55.0358 23.788C55.3829 23.6367 55.698 23.4117 56.034 23.2326C56.8393 22.8036 57.7029 23.0036 58.1624 23.7811C59.2287 25.5859 60.2783 27.4033 61.3071 29.2304C61.7389 29.9968 61.4917 30.8354 60.7517 31.3199C60.3338 31.5935 59.7368 31.7559 59.523 32.1363C59.3217 32.4959 59.523 33.0762 59.5397 33.5608C59.5466 33.751 59.5758 33.9551 59.5216 34.1314C59.3092 34.8187 59.6202 35.1935 60.2283 35.4295C60.4033 35.4976 60.5643 35.61 60.724 35.7142C61.4917 36.2098 61.7444 37.0484 61.2988 37.8384C60.2686 39.6655 59.2217 41.4829 58.1513 43.2864C57.7029 44.043 56.8462 44.2402 56.0618 43.8362C55.6189 43.6071 55.1788 43.1753 54.7428 43.1836C54.3305 43.1906 53.957 43.7445 53.5127 43.8959C52.4478 44.2582 52.098 44.9149 52.2229 46.0284C52.3215 46.8989 51.5746 47.5723 50.6874 47.5792C48.6048 47.5945 46.5236 47.5945 44.4411 47.5792C43.5553 47.5723 42.8097 46.8962 42.9069 46.027C43.0319 44.9149 42.7 44.2263 41.6129 43.9056C41.3894 43.839 41.1687 43.6876 40.9993 43.521C40.5647 43.0948 40.1538 43.1045 39.6956 43.4766C39.5095 43.6279 39.2832 43.7307 39.0667 43.8403C38.2767 44.2374 37.4228 44.0375 36.9771 43.285C35.9081 41.4801 34.8613 39.6627 33.8311 37.837C33.3868 37.0498 33.602 36.0904 34.4225 35.7419C35.4666 35.2976 35.847 34.6437 35.5999 33.5608C35.5471 33.3303 35.5471 33.061 35.6165 32.8374C35.8123 32.1974 35.5096 31.8795 34.9668 31.6587C34.7599 31.574 34.5697 31.4449 34.3809 31.3227C33.6478 30.8507 33.3951 29.9968 33.8255 29.2346C34.8543 27.4075 35.9039 25.5915 36.9702 23.7852C37.4187 23.0258 38.3378 22.7162 39.0361 23.234C40.001 23.949 40.7036 23.7602 41.674 23.1771C42.564 22.6426 43.0596 22.183 42.9014 21.0987C42.7833 20.2893 43.3609 19.8158 44.0273 19.4729C46.3876 19.4687 48.7478 19.4688 51.1081 19.4688ZM52.2521 33.5164C52.2479 30.9506 50.1501 28.85 47.5844 28.8417C44.995 28.8347 42.8805 30.9465 42.8833 33.5358C42.8875 36.1001 44.9881 38.2035 47.551 38.2105C50.1404 38.2174 52.2563 36.1043 52.2521 33.5164Z" fill="white"/>
<path d="M47.1518 72.7825C44.4 71.3983 41.6524 70.01 38.8979 68.6299C33.3055 65.8295 27.7103 63.032 22.1124 60.2427C21.4723 59.9234 21.0281 59.4833 21.0225 58.7363C21.017 57.963 21.489 57.534 22.1304 57.1841C22.6483 56.9023 23.0565 56.8898 23.6049 57.1661C30.8439 60.8161 38.0996 64.4342 45.3497 68.0634C46.8727 68.8257 48.3736 68.7757 49.8897 68.0148C56.515 64.6911 63.1487 61.3826 69.7782 58.0671C70.5057 57.7034 71.2276 57.3257 71.9663 56.9842C72.1259 56.9106 72.3647 56.9148 72.5327 56.9772C72.8396 57.0897 73.1353 57.248 73.4088 57.4285C74.3501 58.0477 74.3543 59.3847 73.4213 60.015C73.2214 60.1497 73.0006 60.2552 72.784 60.3649C64.7425 64.3856 56.701 68.4064 48.661 72.4271C48.4319 72.541 48.2083 72.6645 47.9834 72.7839C47.7071 72.7825 47.4295 72.7825 47.1518 72.7825Z" fill="white"/>
<path d="M30.5709 38.4288C31.769 40.5086 32.9491 42.5662 34.1362 44.6196C35.3413 46.7008 37.2559 47.5227 39.6036 46.9757C39.6675 46.9604 39.7369 46.9632 39.8355 46.9549C40.1007 48.0142 40.6074 48.9264 41.4516 49.6206C42.3276 50.3397 43.337 50.7063 44.4727 50.7077C46.5205 50.7104 48.5684 50.7146 50.6149 50.7063C52.8085 50.6965 54.5384 49.4012 55.1923 47.2978C55.2271 47.1853 55.2659 47.0729 55.3131 46.9299C56.2739 47.2034 57.2097 47.2575 58.151 46.9688C59.2367 46.6342 60.1419 46.0288 60.7236 45.0556C61.8899 43.1077 63.0047 41.1292 64.1349 39.1591C64.271 38.9217 64.3612 38.6593 64.4903 38.3691C65.24 38.7426 65.9662 39.1036 66.6909 39.466C68.8443 40.5433 70.9976 41.6207 73.1524 42.6967C73.7452 42.9924 74.1034 43.4534 74.1118 44.1254C74.1201 44.8209 73.7577 45.2999 73.1441 45.6012C73.0816 45.6317 73.0205 45.6651 72.9594 45.6956C68.1251 48.1128 63.2908 50.5313 58.455 52.9485C55.1854 54.584 51.9102 56.207 48.6517 57.8634C47.902 58.2452 47.2453 58.2424 46.4886 57.862C38.3916 53.7926 30.2807 49.7483 22.1809 45.6831C21.8366 45.511 21.4825 45.261 21.2659 44.9542C20.7342 44.2017 21.0285 43.1882 21.8935 42.7509C24.7535 41.3028 27.6247 39.8769 30.4931 38.4455C30.5375 38.4247 30.5931 38.4247 30.5709 38.4288Z" fill="white"/>
<path d="M74.1246 51.409C74.0969 52.1296 73.7317 52.6016 73.1014 52.9154C70.93 53.9942 68.7627 55.0827 66.5941 56.167C60.6296 59.1492 54.6609 62.1218 48.7062 65.1234C47.919 65.5205 47.2484 65.5302 46.4529 65.1304C38.3586 61.0596 30.2505 57.0167 22.1451 52.9654C21.2455 52.5156 20.8637 51.8422 21.0636 51.0675C21.2191 50.4663 22.2506 49.5875 22.8615 49.5791C23.0351 49.5764 23.2156 49.6999 23.3836 49.7846C30.6351 53.4097 37.8907 57.0236 45.1311 60.6709C46.7805 61.5025 48.3577 61.5039 50.0029 60.6778C57.2142 57.0542 64.4435 53.4694 71.6422 49.8221C72.378 49.4486 72.8126 49.8193 73.3332 50.0928C73.8511 50.3636 74.0857 50.8384 74.1246 51.409Z" fill="white"/>
</svg>
