<svg width="95" height="94" viewBox="0 0 95 94" fill="none" xmlns="http://www.w3.org/2000/svg">
<rect width="95" height="94" rx="20" fill="#00A256"/>
<path d="M22 69.1547C22 58.2152 22 47.2744 22 36.335C39.4397 36.335 56.8795 36.335 74.3479 36.335C74.3479 36.5057 74.3479 36.6054 74.3479 36.7051C74.3479 47.3031 74.3493 57.9011 74.3411 68.499C74.3411 68.9033 74.2851 69.3172 74.1826 69.7092C73.6281 71.8264 71.8278 73.1417 69.5031 73.1417C58.173 73.1431 46.8415 73.1431 35.5114 73.1417C32.5461 73.1417 29.5821 73.1513 26.6167 73.1376C24.5966 73.1281 22.851 71.8591 22.2322 69.9838C22.1434 69.712 22.0765 69.4319 22 69.1547ZM54.3266 42.5511C54.2979 42.3613 54.2897 42.2411 54.2624 42.1264C54.104 41.4789 53.5822 41.0145 52.9416 40.9462C52.2641 40.8738 51.6495 41.2262 51.3531 41.9051C50.6729 43.4636 50.009 45.0289 49.3397 46.5915C46.989 52.0769 44.6315 57.561 42.2986 63.0546C42.1401 63.4261 42.0554 63.8837 42.1073 64.2784C42.1948 64.9518 42.7998 65.4162 43.4596 65.4654C44.1616 65.5173 44.7326 65.1321 45.0631 64.3631C48.079 57.3301 51.0922 50.2971 54.1013 43.2628C54.2051 43.0169 54.2638 42.7506 54.3266 42.5511ZM33.7685 53.2079C33.998 53.0207 34.1551 52.891 34.3135 52.7639C36.1479 51.297 37.9864 49.8341 39.8167 48.3617C40.5926 47.7374 40.725 46.8155 40.165 46.112C39.6064 45.41 38.6776 45.3444 37.8949 45.97C35.4199 47.9451 32.9476 49.9229 30.4795 51.9048C29.5261 52.6697 29.5192 53.7351 30.4644 54.4945C32.9326 56.4778 35.4049 58.4543 37.8799 60.4293C38.6694 61.0604 39.5845 61.0071 40.1541 60.3132C40.736 59.603 40.5939 58.6769 39.7921 58.0295C38.9316 57.3342 38.0643 56.6472 37.1997 55.956C36.0728 55.0545 34.9473 54.1531 33.7685 53.2079ZM62.5794 53.201C62.3704 53.3745 62.2283 53.4947 62.0835 53.6108C60.2232 55.101 58.3601 56.5857 56.5025 58.08C55.7554 58.681 55.6297 59.5961 56.1774 60.2914C56.721 60.9825 57.6526 61.074 58.4066 60.4758C60.9116 58.4843 63.4112 56.486 65.9053 54.4809C66.8232 53.7419 66.8164 52.6601 65.8917 51.9171C63.4112 49.9229 60.9239 47.9369 58.4325 45.9536C57.6717 45.3471 56.7579 45.4141 56.1979 46.0929C55.6229 46.7909 55.7485 47.7211 56.5148 48.3425C57.348 49.0187 58.1894 49.6838 59.0253 50.3545C60.1931 51.2874 61.3582 52.223 62.5794 53.201Z" fill="white"/>
<path d="M22 33.27C22 30.5096 22 27.7491 22 24.9886C22.0287 24.9108 22.0669 24.8343 22.0861 24.7523C22.6515 22.3743 24.378 21.0016 26.8216 21.0016C41.0652 21.0002 55.3101 20.9988 69.5536 21.0016C72.3728 21.0016 74.3411 22.9753 74.3465 25.7945C74.352 28.1111 74.3479 30.429 74.3465 32.7455C74.3465 32.9094 74.3315 33.0734 74.322 33.2687C56.8549 33.27 39.4275 33.27 22 33.27ZM62.0289 27.1358C60.5319 27.1358 59.0349 27.1331 57.5378 27.1372C56.5448 27.1399 55.8523 27.7655 55.8441 28.6547C55.8359 29.5466 56.5298 30.1995 57.5092 30.2009C60.4868 30.205 63.4631 30.205 66.4408 30.2009C67.4256 30.1995 68.1153 29.5521 68.1085 28.6574C68.1017 27.7655 67.4119 27.1399 66.4175 27.1372C64.9547 27.1317 63.4918 27.1358 62.0289 27.1358ZM29.7446 27.1372C28.9169 27.1508 28.2312 27.8543 28.238 28.682C28.2449 29.5097 28.9415 30.2022 29.7692 30.2022C30.6174 30.2022 31.3222 29.4797 31.3017 28.6315C31.2813 27.8024 30.5724 27.1222 29.7446 27.1372ZM37.4346 28.7435C37.477 27.9198 36.82 27.1877 35.9922 27.1385C35.17 27.0894 34.431 27.7423 34.375 28.5686C34.3176 29.4114 34.9951 30.164 35.842 30.2009C36.667 30.235 37.3923 29.5726 37.4346 28.7435ZM43.5716 28.6697C43.5729 27.8406 42.8832 27.144 42.0541 27.1372C41.2263 27.129 40.5229 27.816 40.5092 28.6424C40.4942 29.4906 41.2058 30.2077 42.0527 30.2009C42.8791 30.194 43.5702 29.4988 43.5716 28.6697Z" fill="white"/>
</svg>
