<svg width="95" height="94" viewBox="0 0 95 94" fill="none" xmlns="http://www.w3.org/2000/svg">
<rect width="95" height="94" rx="20" fill="#00A256"/>
<path d="M32.1518 74.2709C32.185 72.4955 32.0422 70.6942 32.2917 68.9492C32.6436 66.4961 34.9107 64.7842 37.4042 64.7842C43.7441 64.7842 50.0839 64.7842 56.4237 64.7842C59.0557 64.7842 61.4353 66.9662 61.5593 69.5809C61.6343 71.1413 61.5723 72.7075 61.5723 74.2709C51.7655 74.2709 41.9586 74.2709 32.1518 74.2709Z" fill="white"/>
<path d="M44.4969 36.4211C41.4409 37.4494 39.4882 39.3877 38.5234 42.2504C35.6318 39.3646 32.7417 36.4817 29.8184 33.5642C32.7114 33.0132 34.9641 31.4816 36.3486 28.8396C37.7287 26.2033 37.6956 23.4934 36.4899 20.7215C36.7178 20.7215 36.8908 20.7215 37.0639 20.7215C42.6336 20.7215 48.2019 20.7244 53.7716 20.7201C55.3709 20.7186 56.5651 21.3979 57.403 22.7536C57.4996 22.9108 57.7549 23.0564 57.9395 23.0607C59.236 23.0867 60.5354 23.0607 61.8319 23.0838C62.1939 23.0896 62.3569 22.9814 62.5011 22.6411C63.4183 20.4605 65.6508 19.1265 67.892 19.3817C70.3653 19.6644 72.2142 21.359 72.667 23.7588C73.1199 26.1614 71.7916 28.6002 69.4683 29.5751C69.1294 29.7179 69.0126 29.8765 69.0255 30.2399C69.0558 31.0447 69.0342 31.8523 69.0342 32.7162C70.1274 32.7162 71.1816 32.7162 72.3397 32.7162C71.9647 35.9495 71.5984 39.1151 71.2263 42.3182C70.4821 42.3182 69.7841 42.3182 69.04 42.3182C69.04 44.4771 69.04 46.5914 69.04 48.7388C67.954 48.7388 66.9171 48.7388 65.8268 48.7388C65.8268 46.6289 65.8268 44.5161 65.8268 42.3384C65.0667 42.3384 64.3572 42.3384 63.6029 42.3384C63.2294 39.1252 62.8631 35.9697 62.4881 32.7522C63.6058 32.7522 64.66 32.7522 65.7878 32.7522C65.7878 31.7701 65.7965 30.8428 65.7749 29.914C65.7734 29.8231 65.6105 29.7005 65.4965 29.6544C64.0587 29.0602 63.0448 28.0521 62.4319 26.6244C62.3699 26.4787 62.129 26.3201 61.9689 26.3186C60.5989 26.2941 59.2288 26.2956 57.8602 26.3172C57.7044 26.3201 57.4881 26.4513 57.4073 26.5854C56.5564 27.9916 55.3176 28.6434 53.6793 28.6391C48.2177 28.6261 42.7576 28.6348 37.2961 28.6348C37.1028 28.6348 36.911 28.6348 36.686 28.6348C39.2921 31.2307 41.8577 33.7891 44.4969 36.4211Z" fill="white"/>
<path d="M28.4 30.3456C25.2358 30.3485 22.7033 27.8146 22.7149 24.6562C22.7264 21.5267 25.2574 19.0014 28.387 19C31.5309 18.9986 34.098 21.5642 34.085 24.6981C34.0721 27.8204 31.5353 30.3428 28.4 30.3456ZM29.9835 23.1073C28.8917 23.1073 27.8577 23.1073 26.7963 23.1073C26.7963 24.1717 26.7963 25.2028 26.7963 26.2571C27.875 26.2571 28.9206 26.2571 29.9835 26.2571C29.9835 25.1927 29.9835 24.1731 29.9835 23.1073Z" fill="white"/>
<path d="M46.859 39.3643C49.8919 39.3628 52.3263 41.7886 52.3248 44.8085C52.3234 47.8212 49.8746 50.27 46.8633 50.2715C43.8563 50.2729 41.3974 47.8169 41.3945 44.8128C41.3916 41.7972 43.8318 39.3643 46.859 39.3643ZM45.2553 46.3776C46.36 46.3776 47.4099 46.3776 48.4454 46.3776C48.4454 45.2988 48.4454 44.2634 48.4454 43.2322C47.3594 43.2322 46.3095 43.2322 45.2553 43.2322C45.2553 44.2994 45.2553 45.3219 45.2553 46.3776Z" fill="white"/>
<path d="M42.6523 61.5104C42.6523 58.4876 42.6523 55.5051 42.6523 52.4434C45.4487 53.8336 48.2336 53.8538 51.0502 52.4462C51.0502 55.4893 51.0502 58.4789 51.0502 61.5104C48.2696 61.5104 45.4877 61.5104 42.6523 61.5104Z" fill="white"/>
</svg>
