<svg width="95" height="94" viewBox="0 0 95 94" fill="none" xmlns="http://www.w3.org/2000/svg">
<rect width="95" height="94" rx="20" fill="#00A256"/>
<path d="M78 37.2751C78 38.1754 78 39.0757 78 39.976C77.9656 40.1077 77.9139 40.2363 77.8999 40.3696C77.7246 42.0933 77.2771 43.748 76.6497 45.3557C75.1273 49.2532 72.7569 52.6128 70.0015 55.7073C63.9432 62.5127 56.7568 67.9284 49.0446 72.6886C48.3452 73.1199 47.6537 73.0948 46.9496 72.6651C40.4266 68.686 34.3103 64.1721 28.8575 58.7939C25.4904 55.472 22.4581 51.8803 20.3208 47.6158C17.0554 41.1021 17.1665 34.67 21.0953 28.4904C23.8335 24.1835 27.7951 21.5627 32.935 21.1078C38.3878 20.6248 42.8361 22.7343 46.3675 26.8592C46.959 27.5493 47.4628 28.3163 48.0339 29.0848C48.1324 28.9468 48.2154 28.8213 48.3061 28.7053C49.0259 27.783 49.6627 26.7761 50.4841 25.9543C54.8025 21.6301 59.958 19.9472 65.8912 21.6615C71.9026 23.3977 75.5028 27.6591 77.274 33.5517C77.6386 34.7563 77.7637 36.033 78 37.2751Z" fill="white"/>
</svg>
