<svg width="95" height="94" viewBox="0 0 95 94" fill="none" xmlns="http://www.w3.org/2000/svg">
<rect width="95" height="94" rx="20" fill="#00A256"/>
<path d="M24 39.9412C24.1697 39.9338 24.3394 39.9189 24.509 39.9189C40.023 39.9177 55.5383 39.9177 71.0523 39.9189C71.222 39.9189 71.3916 39.9338 71.5613 39.9412C71.5613 40.776 71.5613 41.6107 71.5613 42.4443C71.4461 42.7936 71.3656 43.1602 71.2096 43.4909C70.4875 45.0217 69.249 45.8119 67.5695 45.8429C65.6052 45.8788 63.6384 45.8763 61.674 45.8441C59.7196 45.8119 58.268 44.6241 57.79 42.7403C57.764 42.6387 57.7317 42.5384 57.6834 42.3725C57.3144 44.1498 56.3396 45.2967 54.6218 45.7301C54.2229 45.8305 53.7944 45.8466 53.3795 45.8478C49.6651 45.8565 45.9507 45.8528 42.2376 45.8528C39.8695 45.8528 38.4476 44.7368 37.8791 42.3898C37.8345 42.5372 37.7999 42.6375 37.7738 42.7391C37.2896 44.6291 35.8479 45.8119 33.891 45.8441C31.9267 45.8763 29.9599 45.8763 27.9955 45.8453C26.0052 45.8131 24.5351 44.587 24.0842 42.6598C24.0669 42.5855 24.031 42.5161 24.0025 42.4455C24 41.6107 24 40.776 24 39.9412Z" fill="white"/>
<path d="M52.5182 24.0869C52.9059 26.0537 53.2886 28.0205 53.6812 29.9873C54.1816 32.4979 54.6906 35.0072 55.1922 37.5177C55.2158 37.6341 55.2121 37.7555 55.222 37.9004C50.2517 37.9004 45.3087 37.9004 40.3037 37.9004C40.4907 36.948 40.6678 36.029 40.8524 35.1124C41.5782 31.4984 42.3052 27.8843 43.0297 24.2715C43.0421 24.212 43.0384 24.1488 43.0434 24.0869C46.2017 24.0869 49.3599 24.0869 52.5182 24.0869Z" fill="white"/>
<path d="M39.0477 24.0869C38.7083 25.7329 38.3628 27.379 38.0308 29.0262C37.4611 31.8551 36.9 34.6851 36.334 37.5152C36.3105 37.6353 36.2733 37.753 36.2362 37.8979C32.3434 37.8979 28.4495 37.8979 24.501 37.8979C24.7586 36.9913 25.0063 36.1194 25.2553 35.2487C26.1371 32.1635 27.04 29.0844 27.8921 25.9906C28.151 25.0505 28.6167 24.3743 29.5728 24.0869C32.7311 24.0869 35.8894 24.0869 39.0477 24.0869Z" fill="white"/>
<path d="M65.9853 24.0869C66.944 24.3718 67.4047 25.0505 67.666 25.9906C68.7275 29.8102 69.8335 33.6175 70.9234 37.4297C70.9643 37.5747 70.999 37.7208 71.046 37.9004C67.1223 37.9004 63.2432 37.9004 59.3108 37.9004C59.0904 36.8068 58.8674 35.7082 58.647 34.6096C57.9559 31.1602 57.2672 27.7097 56.5761 24.2603C56.5637 24.2009 56.534 24.1451 56.5117 24.0869C59.6688 24.0869 62.8271 24.0869 65.9853 24.0869Z" fill="white"/>
<path d="M37.8607 46.3066C38.8317 47.129 39.9068 47.6381 41.1416 47.7743C41.4636 47.8102 41.7894 47.8214 42.1139 47.8214C45.6747 47.8251 49.2343 47.7917 52.7938 47.8362C54.6021 47.8585 56.2741 47.57 57.6774 46.3104C58.4812 46.9755 59.347 47.4758 60.3564 47.6641C60.8246 47.7508 61.3051 47.8115 61.782 47.8152C63.6707 47.8325 65.5595 47.8424 67.4471 47.8115C68.1344 47.8003 68.8194 47.6666 69.5612 47.5823C69.5674 47.705 69.5848 47.8647 69.5848 48.0257C69.586 55.1176 69.5873 62.2095 69.5848 69.3014C69.5848 70.7766 68.7971 71.5581 67.3182 71.5581C60.3217 71.5581 53.3252 71.5581 46.3286 71.5581C46.1763 71.5581 46.024 71.5581 45.806 71.5581C45.806 71.3314 45.806 71.1382 45.806 70.9438C45.806 65.3344 45.8072 59.7263 45.801 54.1169C45.801 53.7961 45.7824 53.4617 45.6945 53.1558C45.4604 52.3297 44.7198 51.7922 43.807 51.7884C40.51 51.7785 37.213 51.7761 33.916 51.7897C32.8087 51.7934 32.0247 52.5526 31.9281 53.6524C31.912 53.837 31.9194 54.0228 31.9182 54.2086C31.9182 59.7709 31.9182 65.3332 31.9182 70.8955C31.9182 71.0949 31.9182 71.2943 31.9182 71.5568C31.4166 71.5568 30.9422 71.5568 30.4679 71.5568C29.6479 71.5568 28.8268 71.5643 28.0069 71.5544C26.8872 71.542 26.0772 70.7827 25.9818 69.6693C25.9695 69.5306 25.9732 69.3919 25.9732 69.2519C25.9732 62.191 25.9732 55.13 25.9732 48.0679C25.9732 47.9006 25.9732 47.7322 25.9732 47.5266C28.2471 48.0517 30.51 47.7173 32.7554 47.8214C34.6343 47.913 36.4017 47.6443 37.8607 46.3066ZM56.7436 51.7872C55.1186 51.7872 53.4936 51.781 51.8687 51.7897C50.5669 51.7959 49.7619 52.6009 49.7557 53.9088C49.747 55.7778 49.7483 57.6468 49.7557 59.5157C49.7607 60.8509 50.562 61.6584 51.8909 61.6609C55.0938 61.6671 58.2979 61.6671 61.5008 61.6609C62.8285 61.6584 63.6323 60.8509 63.6385 59.5182C63.6472 57.6641 63.646 55.8112 63.6385 53.9571C63.6336 52.591 62.8372 51.7946 61.4785 51.7897C59.9006 51.7835 58.3215 51.7872 56.7436 51.7872Z" fill="white"/>
</svg>
