<svg width="21" height="20" viewBox="0 0 21 20" fill="none" xmlns="http://www.w3.org/2000/svg">
<path d="M18.0363 2.26793C17.626 1.84857 17.0187 1.69346 16.4524 1.85759L3.2478 5.67289C2.65035 5.83867 2.22689 6.3122 2.11281 6.91293C1.99628 7.52515 2.40333 8.30315 2.93513 8.62813L7.06393 11.1492C7.48739 11.4086 8.03396 11.3437 8.38439 10.9925L13.1123 6.2646C13.3503 6.01758 13.7442 6.01758 13.9822 6.2646C14.2202 6.50177 14.2202 6.88831 13.9822 7.13451L9.24609 11.8624C8.89484 12.2136 8.82919 12.7586 9.0877 13.1829L11.6104 17.3273C11.9059 17.8188 12.4147 18.0987 12.9728 18.0987C13.0384 18.0987 13.1123 18.0987 13.1779 18.0897C13.8181 18.0084 14.3269 17.5726 14.5156 16.9571L18.4302 3.85182C18.6026 3.29377 18.4466 2.68647 18.0363 2.26793Z" fill="white"/>
<path opacity="0.4" fillRule="evenodd" clip-rule="evenodd" d="M2.92194 13.9457C2.76437 13.9457 2.6068 13.8858 2.48698 13.7652C2.24653 13.5247 2.24653 13.1357 2.48698 12.8952L3.6072 11.7742C3.84766 11.5346 4.23748 11.5346 4.47793 11.7742C4.71757 12.0147 4.71757 12.4045 4.47793 12.6449L3.3569 13.7652C3.23708 13.8858 3.07951 13.9457 2.92194 13.9457ZM6.00865 14.9243C5.85109 14.9243 5.69352 14.8644 5.5737 14.7437C5.33324 14.5033 5.33324 14.1143 5.5737 13.8738L6.69392 12.7528C6.93437 12.5131 7.32419 12.5131 7.56465 12.7528C7.80428 12.9932 7.80428 13.3831 7.56465 13.6235L6.44361 14.7437C6.32379 14.8644 6.16622 14.9243 6.00865 14.9243ZM6.21685 17.8524C6.33667 17.9731 6.49424 18.033 6.65181 18.033C6.80938 18.033 6.96695 17.9731 7.08676 17.8524L8.2078 16.7322C8.44744 16.4918 8.44744 16.1019 8.2078 15.8615C7.96734 15.6218 7.57753 15.6218 7.33707 15.8615L6.21685 16.9825C5.9764 17.223 5.9764 17.612 6.21685 17.8524Z" fill="white"/>
</svg>
