<svg width="279" height="78" viewBox="0 0 279 78" fill="none" xmlns="http://www.w3.org/2000/svg">
<rect x="0.5" y="0.5" width="278" height="77" rx="38.5" stroke="#FFB800"/>
<path d="M44.936 32.552H49.4V47H52.136V32.552H56.576V30.32H44.936V32.552ZM58.4349 40.328C58.4349 44.408 61.1949 47.216 64.6269 47.216C66.8349 47.216 68.4189 46.16 69.2589 45.032V47H72.0189V33.776H69.2589V35.696C68.4429 34.616 66.9069 33.56 64.6749 33.56C61.1949 33.56 58.4349 36.248 58.4349 40.328ZM69.2589 40.376C69.2589 43.232 67.3149 44.84 65.2509 44.84C63.2109 44.84 61.2429 43.184 61.2429 40.328C61.2429 37.472 63.2109 35.936 65.2509 35.936C67.3149 35.936 69.2589 37.544 69.2589 40.376ZM75.6125 47H78.3485V41.312L83.2445 47H86.9405L80.8445 40.4L86.9405 33.776H83.1485L78.3485 39.56V29.24H75.6125V47ZM94.4696 35.864C96.5096 35.864 98.1176 37.16 98.1656 39.2H90.8456C91.1336 37.112 92.6216 35.864 94.4696 35.864ZM100.662 43.064H97.7096C97.2056 44.096 96.2696 44.912 94.5896 44.912C92.5736 44.912 91.0136 43.592 90.8216 41.408H100.926C100.998 40.952 101.022 40.52 101.022 40.064C101.022 36.176 98.3576 33.56 94.5896 33.56C90.6776 33.56 87.9896 36.224 87.9896 40.376C87.9896 44.528 90.7976 47.216 94.5896 47.216C97.8296 47.216 99.9176 45.368 100.662 43.064ZM109.036 40.328C109.036 44.408 111.796 47.216 115.228 47.216C117.436 47.216 119.02 46.16 119.86 45.032V47H122.62V33.776H119.86V35.696C119.044 34.616 117.508 33.56 115.276 33.56C111.796 33.56 109.036 36.248 109.036 40.328ZM119.86 40.376C119.86 43.232 117.916 44.84 115.852 44.84C113.812 44.84 111.844 43.184 111.844 40.328C111.844 37.472 113.812 35.936 115.852 35.936C117.916 35.936 119.86 37.544 119.86 40.376ZM132.448 47H135.184V29.24H132.448V47ZM151.377 40.376C151.377 36.224 148.401 33.56 144.633 33.56C140.865 33.56 137.889 36.224 137.889 40.376C137.889 44.528 140.745 47.216 144.513 47.216C148.305 47.216 151.377 44.528 151.377 40.376ZM140.673 40.376C140.673 37.376 142.521 35.936 144.585 35.936C146.625 35.936 148.569 37.376 148.569 40.376C148.569 43.376 146.553 44.84 144.513 44.84C142.449 44.84 140.673 43.376 140.673 40.376ZM166.681 40.376C166.681 36.224 163.705 33.56 159.937 33.56C156.169 33.56 153.193 36.224 153.193 40.376C153.193 44.528 156.049 47.216 159.817 47.216C163.609 47.216 166.681 44.528 166.681 40.376ZM155.977 40.376C155.977 37.376 157.825 35.936 159.889 35.936C161.929 35.936 163.873 37.376 163.873 40.376C163.873 43.376 161.857 44.84 159.817 44.84C157.753 44.84 155.977 43.376 155.977 40.376ZM169.386 47H172.122V41.312L177.018 47H180.714L174.618 40.4L180.714 33.776H176.922L172.122 39.56V29.24H169.386V47Z" fill="white"/>
<path d="M235.707 39.7071C236.098 39.3166 236.098 38.6834 235.707 38.2929L229.343 31.9289C228.953 31.5384 228.319 31.5384 227.929 31.9289C227.538 32.3195 227.538 32.9526 227.929 33.3431L233.586 39L227.929 44.6569C227.538 45.0474 227.538 45.6805 227.929 46.0711C228.319 46.4616 228.953 46.4616 229.343 46.0711L235.707 39.7071ZM207 40H235V38H207V40Z" fill="#FFB800"/>
</svg>
